<svg width="19" height="19" viewBox="0 0 19 19" fill="none" xmlns="http://www.w3.org/2000/svg">
<path d="M13.0523 11.6572C12.87 12.2388 12.5504 12.7677 12.1208 13.1988C11.6912 13.63 11.1642 13.9507 10.5846 14.1337C10.5 14.1601 10.4119 14.1736 10.3233 14.1737C10.1151 14.1739 9.91371 14.0992 9.75567 13.9632C9.59762 13.8272 9.49336 13.6388 9.46176 13.4323C9.43017 13.2258 9.47334 13.0147 9.58345 12.8374C9.69356 12.6601 9.86333 12.5282 10.062 12.4657C10.3743 12.3672 10.6584 12.1944 10.8899 11.9621C11.1214 11.7297 11.2935 11.4447 11.3917 11.1313C11.426 11.0217 11.4815 10.9201 11.5549 10.8321C11.6284 10.744 11.7184 10.6714 11.8198 10.6183C12.0247 10.5111 12.2636 10.4899 12.484 10.5595C12.5931 10.5939 12.6944 10.6496 12.7821 10.7233C12.8698 10.797 12.9422 10.8874 12.9951 10.9892C13.048 11.091 13.0804 11.2022 13.0905 11.3166C13.1006 11.4309 13.0881 11.5462 13.0538 11.6557L13.0523 11.6572ZM16.1283 10.5209C16.1283 12.2981 15.4248 14.0026 14.1725 15.2593C12.9202 16.516 11.2218 17.222 9.45086 17.222C7.6799 17.222 5.98147 16.516 4.72921 15.2593C3.47695 14.0026 2.77344 12.2981 2.77344 10.5209C2.77344 8.42237 3.59142 6.28309 5.20344 4.16348C5.27811 4.06526 5.37268 3.98405 5.48091 3.92519C5.58914 3.86633 5.70858 3.83116 5.83134 3.82201C5.9541 3.81285 6.0774 3.82992 6.19311 3.87208C6.30883 3.91424 6.41432 3.98054 6.50263 4.0666L7.93174 5.45855L9.37828 1.48082C9.42611 1.34921 9.50476 1.23107 9.60761 1.13634C9.71045 1.04162 9.83448 0.973095 9.96923 0.936537C10.104 0.899979 10.2455 0.896462 10.3819 0.926282C10.5183 0.956102 10.6456 1.01839 10.753 1.10788C12.3686 2.45395 16.1283 6.06676 16.1283 10.5209ZM14.3863 10.5209C14.3863 7.48275 12.1646 4.81102 10.5744 3.28868L9.10755 7.32396C9.05777 7.46094 8.97463 7.58324 8.86571 7.67973C8.75679 7.77622 8.62554 7.84383 8.48393 7.87641C8.34232 7.90899 8.19483 7.9055 8.05491 7.86626C7.91498 7.82702 7.78706 7.75327 7.68279 7.65174L6.01852 6.03107C5.02344 7.56214 4.51537 9.06845 4.51537 10.5209C4.51537 11.8345 5.03536 13.0943 5.96094 14.0232C6.88653 14.9521 8.14189 15.4739 9.45086 15.4739C10.7598 15.4739 12.0152 14.9521 12.9408 14.0232C13.8664 13.0943 14.3863 11.8345 14.3863 10.5209Z" fill="url(#paint0_linear_761_19666)"/>
<defs>
<linearGradient id="paint0_linear_761_19666" x1="9.45086" y1="0.90625" x2="9.45086" y2="17.222" gradientUnits="userSpaceOnUse">
<stop stop-color="#FFA3FE"/>
<stop offset="1" stop-color="#9D01B6"/>
</linearGradient>
</defs>
</svg>
