<svg width="85" height="85" viewBox="0 0 85 85" fill="none" xmlns="http://www.w3.org/2000/svg">
<g clip-path="url(#clip0_729_10700)">
<path d="M77.9141 31.1667H69.8674C71.4486 35.2311 72.2558 39.5555 72.2474 43.9167C72.2474 63.4768 56.3908 79.3333 36.8307 79.3333C17.2706 79.3333 1.41406 63.4768 1.41406 43.9167C1.41406 24.3566 17.2706 8.5 36.8307 8.5H77.9141V31.1667Z" fill="#02A9F4"/>
<path d="M65.6148 31.166C67.196 35.2305 68.0032 39.5548 67.9948 43.916C67.9961 62.6503 53.4039 78.1434 34.7031 79.2633C35.4115 79.3058 36.1198 79.3327 36.8281 79.3327C56.3882 79.3327 72.2448 63.4761 72.2448 43.916C72.2532 39.5548 71.446 35.2305 69.8648 31.166H65.6148Z" fill="#0377BC"/>
<path d="M73.6641 8.5H77.9141V31.1667H73.6641V8.5Z" fill="#0377BC"/>
<path d="M83.5807 8.49935C83.5807 6.93454 82.3122 5.66602 80.7474 5.66602C79.1826 5.66602 77.9141 6.93454 77.9141 8.49935V31.166C77.9141 32.7308 79.1826 33.9994 80.7474 33.9994C82.3122 33.9994 83.5807 32.7308 83.5807 31.166V8.49935Z" fill="#3F51B5"/>
<path d="M36.8333 63.7487C47.787 63.7487 56.6667 54.869 56.6667 43.9154C56.6667 32.9617 47.787 24.082 36.8333 24.082C25.8797 24.082 17 32.9617 17 43.9154C17 54.869 25.8797 63.7487 36.8333 63.7487Z" fill="#3F51B5"/>
<path d="M36.8281 24.0821C36.1182 24.0832 35.4088 24.1225 34.7031 24.1996C44.7622 25.2999 52.38 33.7963 52.38 43.9154C52.38 54.0344 44.7622 62.5309 34.7031 63.6311C42.007 64.4299 49.154 61.1254 53.2766 55.0435C57.3991 48.9617 57.8216 41.099 54.3745 34.6104C50.9273 28.1218 44.1755 24.0705 36.8281 24.0821Z" fill="#283593"/>
<path d="M36.8281 56.666C43.8698 56.666 49.5781 50.9576 49.5781 43.916C49.5781 36.8744 43.8698 31.166 36.8281 31.166C29.7865 31.166 24.0781 36.8744 24.0781 43.916C24.0781 50.9576 29.7865 56.666 36.8281 56.666Z" fill="#7F8E94"/>
<path d="M36.8281 31.1662C36.1157 31.1708 35.4049 31.2348 34.7031 31.3575C40.8369 32.387 45.3297 37.6967 45.3297 43.9162C45.3297 50.1358 40.8369 55.4455 34.7031 56.475C39.459 57.3077 44.2772 55.3825 47.1498 51.5018C50.0224 47.6211 50.4566 42.4507 48.2713 38.1453C46.086 33.8399 41.6563 31.1383 36.8281 31.1662Z" fill="#545C60"/>
<path d="M36.8281 48.166C39.1753 48.166 41.0781 46.2632 41.0781 43.916C41.0781 41.5688 39.1753 39.666 36.8281 39.666C34.4809 39.666 32.5781 41.5688 32.5781 43.916C32.5781 46.2632 34.4809 48.166 36.8281 48.166Z" fill="#9E9E9E"/>
<path d="M63.7474 42.4987C65.3122 42.4987 66.5807 41.2302 66.5807 39.6654C66.5807 38.1006 65.3122 36.832 63.7474 36.832C62.1826 36.832 60.9141 38.1006 60.9141 39.6654C60.9141 41.2302 62.1826 42.4987 63.7474 42.4987Z" fill="#3F51B5"/>
<path d="M36.8307 29.75C30.7362 29.7425 25.3217 33.6386 23.3925 39.4197C21.4633 45.2008 23.453 51.5677 28.3307 55.2217C28.3714 55.2561 28.414 55.2883 28.4582 55.318C30.8662 57.1408 33.8108 58.1134 36.8307 58.0833C39.7797 58.0828 42.654 57.1556 45.0474 55.4328C45.1215 55.3874 45.1912 55.3352 45.2556 55.2769C50.1707 51.6449 52.1982 45.2675 50.2828 39.464C48.3674 33.6605 42.9421 29.7428 36.8307 29.75ZM47.3396 39.6922C45.964 41.2025 43.8852 41.8608 41.8911 41.4177C41.2899 40.1918 40.2676 39.2232 39.011 38.6892C39.7805 36.8281 39.854 34.752 39.2178 32.8412C42.8912 33.6416 45.9315 36.2062 47.3396 39.6922ZM33.9974 43.9167C33.9974 42.3519 35.2659 41.0833 36.8307 41.0833C38.3955 41.0833 39.6641 42.3519 39.6641 43.9167C39.6641 45.4815 38.3955 46.75 36.8307 46.75C35.2659 46.75 33.9974 45.4815 33.9974 43.9167ZM36.0629 32.6216C37.0716 34.3959 37.0543 36.5742 36.0176 38.3322C34.6693 38.5288 33.438 39.2078 32.5524 40.2433C31.0207 38.9288 29.0656 38.2118 27.0472 38.2245C28.938 34.978 32.3147 32.8794 36.0629 32.6216ZM25.4974 43.9167C25.5013 42.9857 25.6202 42.0588 25.8516 41.157C27.8469 40.7418 29.9117 41.4279 31.2618 42.9548C31.2012 43.2719 31.1685 43.5938 31.1641 43.9167C31.1692 44.956 31.4635 45.9733 32.0141 46.8548C30.2946 47.9047 29.0115 49.5394 28.4001 51.459C26.5336 49.3901 25.4995 46.7031 25.4974 43.9167ZM30.8127 53.5033C31.0412 51.474 32.3383 49.7223 34.2127 48.9118C35.4084 49.5747 36.8124 49.7552 38.1369 49.4162C38.6068 51.3772 39.7682 53.103 41.408 54.2768C37.9695 55.8096 33.9921 55.5192 30.8127 53.5033ZM44.094 52.6051C42.239 51.7655 40.9727 50.0002 40.7719 47.974C41.755 47.0135 42.353 45.7266 42.4535 44.3558C42.6915 44.3771 42.9366 44.4153 43.1618 44.4153C44.9413 44.3946 46.669 43.8131 48.0989 42.7536C48.4877 46.4995 46.9861 50.193 44.094 52.6051Z" fill="black"/>
<path d="M53.1579 70.4548C56.6376 68.3095 59.6623 65.502 62.0603 62.1913C62.5203 61.5584 62.3801 60.6723 61.7472 60.2122C61.1142 59.7522 60.2281 59.8924 59.7681 60.5253C57.5861 63.5338 54.8349 66.0848 51.6704 68.0337C51.2159 68.2879 50.9375 68.771 50.9455 69.2917C50.9534 69.8124 51.2464 70.2868 51.7085 70.527C52.1705 70.7672 52.7271 70.7346 53.1579 70.442V70.4548Z" fill="black"/>
<path d="M45.3307 12.75H36.8307C19.6259 12.7695 5.68358 26.7119 5.66406 43.9167C5.66406 44.6991 6.29833 45.3333 7.08073 45.3333C7.86313 45.3333 8.4974 44.6991 8.4974 43.9167C8.51535 28.276 21.1901 15.6013 36.8307 15.5833H45.3307C46.1131 15.5833 46.7474 14.9491 46.7474 14.1667C46.7474 13.3843 46.1131 12.75 45.3307 12.75Z" fill="black"/>
<path d="M80.75 4.25C78.9554 4.25744 77.3589 5.39134 76.7607 7.08333H36.8333C16.4908 7.08333 0 23.5742 0 43.9167C0 64.2592 16.4908 80.75 36.8333 80.75C57.1758 80.75 73.6667 64.2592 73.6667 43.9167C73.6745 40.0683 73.0721 36.243 71.8817 32.5833H76.7607C77.4475 34.5334 79.4408 35.7038 81.4784 35.3535C83.5161 35.0031 85.0039 33.2342 85 31.1667V8.5C85 6.15279 83.0972 4.25 80.75 4.25ZM55.25 43.9167C55.25 54.0879 47.0046 62.3333 36.8333 62.3333C26.6621 62.3333 18.4167 54.0879 18.4167 43.9167C18.4167 33.7454 26.6621 25.5 36.8333 25.5C46.9997 25.5117 55.2383 33.7503 55.25 43.9167ZM36.8333 22.6667C27.0952 22.6338 18.5722 29.2029 16.124 38.6284C13.6758 48.0538 17.9246 57.9403 26.4478 62.6507C34.9709 67.3611 45.6025 65.6984 52.2805 58.6106C58.9585 51.5229 59.9859 40.8112 54.7768 32.5833H68.8868C70.1836 36.2208 70.8421 40.055 70.8333 43.9167C70.8333 62.6943 55.611 77.9167 36.8333 77.9167C18.0557 77.9167 2.83333 62.6943 2.83333 43.9167C2.83333 25.139 18.0557 9.91667 36.8333 9.91667H76.5V29.75H52.6278C48.6121 25.2471 42.8667 22.6705 36.8333 22.6667ZM82.1667 31.1667C82.1667 31.9491 81.5324 32.5833 80.75 32.5833C79.9676 32.5833 79.3333 31.9491 79.3333 31.1667V8.5C79.3333 7.7176 79.9676 7.08333 80.75 7.08333C81.5324 7.08333 82.1667 7.7176 82.1667 8.5V31.1667Z" fill="black"/>
<path d="M63.75 43.916C66.0972 43.916 68 42.0132 68 39.666C68 37.3188 66.0972 35.416 63.75 35.416C61.4028 35.416 59.5 37.3188 59.5 39.666C59.5 42.0132 61.4028 43.916 63.75 43.916ZM63.75 38.2493C64.5324 38.2493 65.1667 38.8836 65.1667 39.666C65.1667 40.4484 64.5324 41.0827 63.75 41.0827C62.9676 41.0827 62.3333 40.4484 62.3333 39.666C62.3333 38.8836 62.9676 38.2493 63.75 38.2493Z" fill="black"/>
</g>
<defs>
<clipPath id="clip0_729_10700">
<rect width="85" height="85" fill="white"/>
</clipPath>
</defs>
</svg>
