<svg width="81" height="81" viewBox="0 0 81 81" fill="none" xmlns="http://www.w3.org/2000/svg">
<mask id="path-1-outside-1_696_9682" maskUnits="userSpaceOnUse" x="0" y="0" width="81" height="81" fill="black">
<rect fill="white" width="81" height="81"/>
<path fill-rule="evenodd" clip-rule="evenodd" d="M5 62.5092V8.67241C5 6.6442 6.6442 5 8.67241 5H18.4655C20.4937 5 22.1379 6.6442 22.1379 8.67241V15.3684L23.8395 9.97C24.4489 8.03725 26.5088 6.96349 28.4422 7.57069L37.7824 10.5209C38.7122 10.8113 39.4879 11.4601 39.9382 12.3239C40.3884 13.1876 40.4761 14.1951 40.1817 15.1236L39.2636 18.0248L41.0141 15.5276C41.5722 14.7285 42.4251 14.184 43.3848 14.0141C44.3446 13.8442 45.3325 14.0628 46.131 14.6217L54.1491 20.2405C54.9483 20.7986 55.4927 21.6514 55.6627 22.6112C55.8326 23.571 55.614 24.5589 55.055 25.3574L53.3045 27.8547L53.3167 27.8669L55.7283 25.994C56.4982 25.3985 57.4739 25.1348 58.439 25.2611C59.4041 25.3875 60.279 25.8936 60.8697 26.6672L66.8434 34.4283C68.0773 36.0382 67.7762 38.3429 66.1702 39.5819L63.7953 41.4181L66.6109 40.3898C67.5264 40.0547 68.5376 40.0973 69.4216 40.5083C70.3057 40.9194 70.99 41.665 71.3238 42.581L74.6779 51.7743C75.0131 52.6898 74.9704 53.701 74.5594 54.5851C74.1484 55.4691 73.4027 56.1534 72.4867 56.4872L65.9865 58.8621L72.3276 58.8621C74.3558 58.8621 76 60.5063 76 62.5345V72.3276C76 74.3558 74.3558 76 72.3276 76H63.7586H50.2931H36.8276H23.3621H22.444H8.67241C6.6442 76 5 74.3558 5 72.3276V62.5345V62.5092Z"/>
</mask>
<path fill-rule="evenodd" clip-rule="evenodd" d="M5 62.5092V8.67241C5 6.6442 6.6442 5 8.67241 5H18.4655C20.4937 5 22.1379 6.6442 22.1379 8.67241V15.3684L23.8395 9.97C24.4489 8.03725 26.5088 6.96349 28.4422 7.57069L37.7824 10.5209C38.7122 10.8113 39.4879 11.4601 39.9382 12.3239C40.3884 13.1876 40.4761 14.1951 40.1817 15.1236L39.2636 18.0248L41.0141 15.5276C41.5722 14.7285 42.4251 14.184 43.3848 14.0141C44.3446 13.8442 45.3325 14.0628 46.131 14.6217L54.1491 20.2405C54.9483 20.7986 55.4927 21.6514 55.6627 22.6112C55.8326 23.571 55.614 24.5589 55.055 25.3574L53.3045 27.8547L53.3167 27.8669L55.7283 25.994C56.4982 25.3985 57.4739 25.1348 58.439 25.2611C59.4041 25.3875 60.279 25.8936 60.8697 26.6672L66.8434 34.4283C68.0773 36.0382 67.7762 38.3429 66.1702 39.5819L63.7953 41.4181L66.6109 40.3898C67.5264 40.0547 68.5376 40.0973 69.4216 40.5083C70.3057 40.9194 70.99 41.665 71.3238 42.581L74.6779 51.7743C75.0131 52.6898 74.9704 53.701 74.5594 54.5851C74.1484 55.4691 73.4027 56.1534 72.4867 56.4872L65.9865 58.8621L72.3276 58.8621C74.3558 58.8621 76 60.5063 76 62.5345V72.3276C76 74.3558 74.3558 76 72.3276 76H63.7586H50.2931H36.8276H23.3621H22.444H8.67241C6.6442 76 5 74.3558 5 72.3276V62.5345V62.5092Z" fill="#7F8B8C"/>
<path d="M22.1379 15.3684H17.1379L26.9067 16.8715L22.1379 15.3684ZM23.8395 9.97L19.0709 8.46638L19.0708 8.46693L23.8395 9.97ZM28.4422 7.57069L29.9482 2.80286L29.9404 2.8004L28.4422 7.57069ZM37.7824 10.5209L36.2765 15.2887L36.284 15.2911L36.2915 15.2934L37.7824 10.5209ZM39.9382 12.3239L44.3719 10.0126L44.3719 10.0126L39.9382 12.3239ZM40.1817 15.1236L35.4155 13.6128L35.4147 13.6151L40.1817 15.1236ZM39.2636 18.0248L34.4966 16.5163L43.3579 20.8948L39.2636 18.0248ZM41.0141 15.5276L45.1084 18.3976L45.1135 18.3904L41.0141 15.5276ZM43.3848 14.0141L44.2564 18.9375L43.3848 14.0141ZM46.131 14.6217L49.0004 10.527L48.9984 10.5256L46.131 14.6217ZM54.1491 20.2405L51.2797 24.3352L51.2863 24.3398L54.1491 20.2405ZM55.6627 22.6112L60.5861 21.7396L60.5861 21.7396L55.6627 22.6112ZM55.055 25.3574L59.1493 28.2274L59.1511 28.2248L55.055 25.3574ZM53.3045 27.8547L49.2102 24.9846L46.8003 28.4225L49.7695 31.3907L53.3045 27.8547ZM53.3167 27.8669L49.7817 31.403L52.9006 34.5209L56.3837 31.8158L53.3167 27.8669ZM55.7283 25.994L52.6695 22.0387L52.6613 22.0451L55.7283 25.994ZM58.439 25.2611L59.0882 20.3035L59.0882 20.3035L58.439 25.2611ZM60.8697 26.6672L56.8956 29.7015L56.9015 29.7093L56.9075 29.717L60.8697 26.6672ZM66.8434 34.4283L70.812 31.3868L70.8056 31.3785L66.8434 34.4283ZM66.1702 39.5819L63.1161 35.623L63.1118 35.6264L66.1702 39.5819ZM63.7953 41.4181L60.7369 37.4626L65.5106 46.1147L63.7953 41.4181ZM66.6109 40.3898L68.3261 45.0864L68.3297 45.0851L66.6109 40.3898ZM69.4216 40.5083L67.3136 45.0422L67.3136 45.0423L69.4216 40.5083ZM71.3238 42.581L66.626 44.293L66.6266 44.2948L71.3238 42.581ZM74.6779 51.7743L69.9808 53.488L69.9827 53.4932L74.6779 51.7743ZM72.4867 56.4872L70.7748 51.7894L70.7709 51.7909L72.4867 56.4872ZM65.9865 58.8621L64.2707 54.1657L65.9865 63.8621L65.9865 58.8621ZM72.3276 58.8621V53.8621V58.8621ZM0 8.67241V62.5092H10V8.67241H0ZM8.67241 0C3.88277 0 0 3.88277 0 8.67241H10C10 9.40562 9.40562 10 8.67241 10V0ZM18.4655 0H8.67241V10H18.4655V0ZM27.1379 8.67241C27.1379 3.88277 23.2552 0 18.4655 0V10C17.7323 10 17.1379 9.40562 17.1379 8.67241H27.1379ZM27.1379 15.3684V8.67241H17.1379V15.3684H27.1379ZM19.0708 8.46693L17.3692 13.8654L26.9067 16.8715L28.6082 11.4731L19.0708 8.46693ZM29.9404 2.8004C25.3745 1.36649 20.5101 3.90217 19.0709 8.46638L28.608 11.4736C28.3877 12.1723 27.6431 12.5605 26.9441 12.341L29.9404 2.8004ZM39.2884 5.75304L29.9482 2.80287L26.9363 12.3385L36.2765 15.2887L39.2884 5.75304ZM44.3719 10.0126C43.307 7.96977 41.4722 6.43522 39.2733 5.7483L36.2915 15.2934C35.9521 15.1874 35.6688 14.9505 35.5044 14.6351L44.3719 10.0126ZM44.948 16.6345C45.6441 14.4384 45.4368 12.0555 44.3719 10.0126L35.5044 14.6351C35.34 14.3197 35.308 13.9518 35.4155 13.6128L44.948 16.6345ZM44.0306 19.5334L44.9487 16.6322L35.4147 13.6151L34.4966 16.5163L44.0306 19.5334ZM36.9199 12.6576L35.1694 15.1548L43.3579 20.8948L45.1084 18.3976L36.9199 12.6576ZM42.5132 9.09064C40.2467 9.49188 38.2327 10.7777 36.9148 12.6648L45.1135 18.3904C44.9117 18.6793 44.6034 18.8761 44.2564 18.9375L42.5132 9.09064ZM48.9984 10.5256C47.1127 9.20562 44.7797 8.68939 42.5132 9.09064L44.2564 18.9375C43.9095 18.9989 43.5523 18.9199 43.2637 18.7179L48.9984 10.5256ZM57.0186 16.1458L49.0004 10.527L43.2616 18.7164L51.2797 24.3352L57.0186 16.1458ZM60.5861 21.7396C60.1848 19.4731 58.8991 17.4591 57.0119 16.1412L51.2863 24.3398C50.9975 24.1381 50.8006 23.8298 50.7392 23.4828L60.5861 21.7396ZM59.1511 28.2248C60.4711 26.3391 60.9873 24.0061 60.5861 21.7396L50.7392 23.4828C50.6778 23.1359 50.7568 22.7787 50.9589 22.4901L59.1511 28.2248ZM57.3988 30.7247L59.1493 28.2274L50.9607 22.4874L49.2102 24.9846L57.3988 30.7247ZM56.8517 24.3308L56.8395 24.3186L49.7695 31.3907L49.7817 31.403L56.8517 24.3308ZM52.6613 22.0451L50.2498 23.918L56.3837 31.8158L58.7952 29.9429L52.6613 22.0451ZM59.0882 20.3035C56.803 20.0042 54.4927 20.6288 52.6695 22.0387L58.787 29.9492C58.5038 30.1683 58.1448 30.2653 57.7898 30.2188L59.0882 20.3035ZM64.8437 23.633C63.445 21.8011 61.3735 20.6027 59.0882 20.3035L57.7898 30.2188C57.4347 30.1723 57.1129 29.9861 56.8956 29.7015L64.8437 23.633ZM70.8056 31.3785L64.8318 23.6175L56.9075 29.717L62.8813 37.478L70.8056 31.3785ZM69.2242 43.5408C73.0118 40.6189 73.7218 35.1837 70.812 31.3868L62.8749 37.4697C62.4327 36.8928 62.5406 36.067 63.1161 35.623L69.2242 43.5408ZM66.8537 45.3736L69.2286 43.5374L63.1118 35.6264L60.7369 37.4626L66.8537 45.3736ZM64.8956 35.6933L62.0801 36.7215L65.5106 46.1147L68.3261 45.0864L64.8956 35.6933ZM71.5296 35.9744C69.4419 35.0038 67.054 34.9031 64.892 35.6946L68.3297 45.0851C67.9988 45.2063 67.6332 45.1908 67.3136 45.0422L71.5296 35.9744ZM76.0216 40.8691C75.2333 38.706 73.6173 36.9451 71.5296 35.9744L67.3136 45.0423C66.994 44.8937 66.7467 44.6241 66.626 44.293L76.0216 40.8691ZM79.3751 50.0606L76.0209 40.8673L66.6266 44.2948L69.9808 53.488L79.3751 50.0606ZM79.0933 56.6931C80.064 54.6054 80.1647 52.2174 79.3732 50.0554L69.9827 53.4932C69.8615 53.1622 69.8769 52.7967 70.0255 52.4771L79.0933 56.6931ZM74.1986 61.185C76.3618 60.3968 78.1227 58.7807 79.0933 56.6931L70.0255 52.4771C70.1741 52.1575 70.4436 51.9101 70.7748 51.7894L74.1986 61.185ZM67.7024 63.5585L74.2025 61.1836L70.7709 51.7909L64.2707 54.1657L67.7024 63.5585ZM72.3276 53.8621L65.9865 53.8621L65.9865 63.8621L72.3276 63.8621V53.8621ZM81 62.5345C81 57.7448 77.1172 53.8621 72.3276 53.8621V63.8621C71.5944 63.8621 71 63.2677 71 62.5345H81ZM81 72.3276V62.5345H71V72.3276H81ZM72.3276 81C77.1172 81 81 77.1172 81 72.3276H71C71 71.5944 71.5944 71 72.3276 71V81ZM63.7586 81H72.3276V71H63.7586V81ZM50.2931 81H63.7586V71H50.2931V81ZM36.8276 81H50.2931V71H36.8276V81ZM23.3621 81H36.8276V71H23.3621V81ZM22.444 81H23.3621V71H22.444V81ZM8.67241 81H22.444V71H8.67241V81ZM0 72.3276C0 77.1172 3.88278 81 8.67241 81V71C9.40561 71 10 71.5944 10 72.3276H0ZM0 62.5345V72.3276H10V62.5345H0ZM0 62.5092V62.5345H10V62.5092H0Z" fill="black" mask="url(#path-1-outside-1_696_9682)"/>
<path fill-rule="evenodd" clip-rule="evenodd" d="M5 62.5345V8.67241C5 6.6442 6.6442 5 8.67241 5H18.4655C20.4937 5 22.1379 6.6442 22.1379 8.67241V15.3684L9.66397 58.8743L5 62.5345Z" fill="#945BA4"/>
<path fill-rule="evenodd" clip-rule="evenodd" d="M40.1794 15.123L39.2613 18.0242L11.6203 59.4735L8.67009 58.8615C8.59236 58.8594 8.51459 58.8635 8.4375 58.8737L22.1356 15.3678L23.8372 9.9694C24.4466 8.03664 26.5065 6.96288 28.4399 7.57009L37.7801 10.5203C38.7098 10.8107 39.4856 11.4595 39.9358 12.3233C40.3861 13.187 40.4737 14.1945 40.1794 15.123Z" fill="#E54C3C"/>
<path fill-rule="evenodd" clip-rule="evenodd" d="M55.0536 25.3586L53.3031 27.8558L53.3154 27.868L13.3962 60.3934L10.7031 58.8632L39.2623 18.026L41.0128 15.5287C41.5709 14.7296 42.4237 14.1851 43.3835 14.0152C44.3432 13.8453 45.3312 14.0639 46.1297 14.6229L54.1478 20.2417C54.9469 20.7997 55.4914 21.6526 55.6613 22.6124C55.8312 23.5721 55.6126 24.5601 55.0536 25.3586Z" fill="#F19B1F"/>
<path fill-rule="evenodd" clip-rule="evenodd" d="M66.171 39.5822L63.7962 41.4184H63.784L63.7717 41.4306L16.0181 60.0865L13.3984 58.8624L53.3176 27.8672L55.7291 25.9943C56.4991 25.3988 57.4748 25.135 58.4399 25.2614C59.405 25.3878 60.2798 25.8939 60.8705 26.6675L66.8443 34.4286C68.0781 36.0385 67.7771 38.3432 66.171 39.5822Z" fill="#F2D45B"/>
<path fill-rule="evenodd" clip-rule="evenodd" d="M72.4851 56.4873L65.9849 58.8621L43.216 60.3923L16.0156 58.8621L63.7692 41.4304L63.7815 41.4181H63.7937L66.6092 40.3898C67.5247 40.0547 68.5359 40.0973 69.42 40.5083C70.304 40.9194 70.9884 41.665 71.3222 42.581L74.6763 51.7743C75.0115 52.6898 74.9688 53.701 74.5578 54.5851C74.1468 55.4691 73.4011 56.1535 72.4851 56.4873Z" fill="#26B899"/>
<path fill-rule="evenodd" clip-rule="evenodd" d="M72.3289 58.8613H23.3634L22.4453 75.9993H72.3289C74.3572 75.9993 76.0014 74.3551 76.0014 72.3268V62.5337C76.0014 60.5055 74.3572 58.8613 72.3289 58.8613Z" fill="#285680"/>
<path fill-rule="evenodd" clip-rule="evenodd" d="M36.8281 58.8613H50.2936V75.9993H36.8281V58.8613Z" fill="#2980B9"/>
<path fill-rule="evenodd" clip-rule="evenodd" d="M50.2891 58.8613H63.7546V75.9993H50.2891V58.8613Z" fill="#2FA7CB"/>
<path fill-rule="evenodd" clip-rule="evenodd" d="M75.9992 62.5337V72.3268C75.9992 74.3551 74.355 75.9993 72.3268 75.9993H63.7578V58.8613H72.3268C74.355 58.8613 75.9992 60.5055 75.9992 62.5337Z" fill="#67B8CB"/>
<path fill-rule="evenodd" clip-rule="evenodd" d="M23.3621 58.8618V75.9998H8.67244C6.64422 75.9998 5.00002 74.3556 5.00002 72.3274V62.5342C4.99344 60.5946 6.50352 58.9878 8.43985 58.8741C8.51694 58.8639 8.59471 58.8598 8.67244 58.8618H23.3621Z" fill="#BCC2C6"/>
<path d="M12.3467 69.879C13.6989 69.879 14.795 68.7828 14.795 67.4307C14.795 66.0786 13.6989 64.9824 12.3467 64.9824C10.9946 64.9824 9.89844 66.0786 9.89844 67.4307C9.89844 68.7828 10.9946 69.879 12.3467 69.879Z" fill="#7F8B8C"/>
</svg>
