<svg width="53" height="56" viewBox="0 0 53 56" fill="none" xmlns="http://www.w3.org/2000/svg">
<g clip-path="url(#clip0_651_9971)">
<path fill-rule="evenodd" clip-rule="evenodd" d="M45.0421 7.42276C53.9816 14.2452 55.7536 28.6903 48.6657 40.9347C41.5778 53.1791 28.3178 58.9211 17.9249 54.5596C15.1874 53.3992 12.5272 52.0627 9.96094 50.5582L23.7585 26.5496L37.556 2.54102C40.1372 4.00709 42.6182 5.64465 44.9823 7.44277L45.0421 7.42276Z" fill="url(#paint0_linear_651_9971)"/>
<g style="mix-blend-mode:screen">
<path fill-rule="evenodd" clip-rule="evenodd" d="M39.1632 3.62104C49.2973 9.50314 51.5272 24.6886 44.1606 37.5131C36.794 50.3377 22.5783 56.0198 12.4442 50.1176C2.31012 44.2155 0.000578071 29.0501 7.44686 16.2255C14.8931 3.40096 29.0092 -2.26106 39.1632 3.62104Z" fill="#FCCE3A"/>
</g>
<path fill-rule="evenodd" clip-rule="evenodd" d="M37.6125 2.52068C48.324 8.7229 50.8326 24.5285 43.2271 37.7933C35.6215 51.058 20.7289 56.7601 9.95772 50.5378C-0.813505 44.3156 -3.26242 28.53 4.34314 15.2652C11.9487 2.00049 26.8413 -3.70154 37.5528 2.52068H37.6125Z" fill="url(#paint1_radial_651_9971)"/>
<g style="mix-blend-mode:screen">
<path fill-rule="evenodd" clip-rule="evenodd" d="M26.561 46.0165C26.4556 46.3476 26.266 46.6453 26.0112 46.8803C25.7563 47.1154 25.4449 47.2797 25.1076 47.357C24.8183 47.4492 24.5118 47.4737 24.2116 47.4286C23.9113 47.3835 23.6254 47.27 23.3755 47.0969C20.2159 47.8864 16.8819 47.5542 13.9382 46.1565C5.43671 42.1551 2.66924 30.0308 7.76616 19.0469C10.2202 13.4921 14.6104 9.03056 20.1103 6.50237C20.1734 6.11479 20.3487 5.75445 20.6142 5.46627C20.8797 5.17809 21.2238 4.97482 21.6035 4.8818C21.9493 4.77565 22.3173 4.76612 22.6681 4.85424C23.0188 4.94236 23.3391 5.1248 23.5945 5.38197C24.7159 5.1631 25.8569 5.06252 26.9991 5.08187C27.1552 4.86889 27.3723 4.70882 27.6213 4.62303C27.8703 4.53724 28.1394 4.52979 28.3928 4.6017C28.6079 4.63704 28.8111 4.72483 28.9846 4.85736C29.1582 4.9899 29.2968 5.16316 29.3882 5.36197C30.432 5.57705 31.4475 5.91273 32.4145 6.36232C40.916 10.3638 43.6835 22.4881 38.5866 33.492C36.1951 38.976 31.9293 43.4187 26.561 46.0165Z" fill="#FFFCE4"/>
</g>
<path fill-rule="evenodd" clip-rule="evenodd" d="M33.9466 7.40214C41.9105 12.0638 43.6427 24.2282 37.6896 34.5718C31.7366 44.9155 20.4079 49.5572 12.4041 44.9155C4.40036 40.2739 2.70803 28.0095 8.66107 17.7458C14.6141 7.48217 25.8831 2.76048 33.9466 7.40214Z" fill="url(#paint2_radial_651_9971)"/>
<path fill-rule="evenodd" clip-rule="evenodd" d="M11.3149 19.2659C16.7503 9.80254 26.7052 5.12086 34.4899 8.00189L35.2266 8.28199C35.0222 8.12392 34.8095 7.97699 34.5895 7.84184L33.9524 7.44169C25.9884 2.80003 14.6199 7.44169 8.66688 17.7854C2.71383 28.1291 4.38626 40.2534 12.4099 44.9151L13.047 45.2552L13.7638 45.5953L13.1466 45.1151C6.79535 39.7532 5.85959 28.7493 11.3149 19.2659Z" fill="url(#paint3_linear_651_9971)"/>
</g>
<defs>
<linearGradient id="paint0_linear_651_9971" x1="22.4444" y1="57.7607" x2="50.2418" y2="9.84094" gradientUnits="userSpaceOnUse">
<stop stop-color="#E86F0C"/>
<stop offset="0.69" stop-color="#FC940D"/>
<stop offset="1" stop-color="#E86F0C"/>
</linearGradient>
<radialGradient id="paint1_radial_651_9971" cx="0" cy="0" r="1" gradientUnits="userSpaceOnUse" gradientTransform="translate(13.9198 1.52032) scale(48.2216 48.4573)">
<stop stop-color="#FCF80D"/>
<stop offset="1" stop-color="#FC9C0D"/>
</radialGradient>
<radialGradient id="paint2_radial_651_9971" cx="0" cy="0" r="1" gradientUnits="userSpaceOnUse" gradientTransform="translate(0.040109 -3.28168) scale(58.9331 59.2212)">
<stop stop-color="#FCF80D"/>
<stop offset="1" stop-color="#F78A0C"/>
</radialGradient>
<linearGradient id="paint3_linear_651_9971" x1="5.79986" y1="41.0937" x2="27.1794" y2="4.23077" gradientUnits="userSpaceOnUse">
<stop stop-color="#FC940D"/>
<stop offset="1" stop-color="#E86F0C"/>
</linearGradient>
<clipPath id="clip0_651_9971">
<rect width="53" height="56" fill="white"/>
</clipPath>
</defs>
</svg>
