<svg width="59" height="47" viewBox="0 0 59 47" fill="none" xmlns="http://www.w3.org/2000/svg">
<path d="M25.4672 45.5C26.2956 45.5 26.9672 44.8284 26.9672 44V33.5H32.3689V44C32.3689 44.8284 33.0404 45.5 33.8689 45.5H50C50.8284 45.5 51.5 44.8284 51.5 44V28C51.5 27.517 51.2674 27.0635 50.8751 26.7817L31.3832 12.7817C30.8808 12.4208 30.2084 12.4054 29.6899 12.7429L8.18171 26.7429C7.75648 27.0196 7.5 27.4926 7.5 28V44C7.5 44.8284 8.17157 45.5 9 45.5H25.4672Z" fill="white" stroke="black" stroke-width="3" stroke-linejoin="round"/>
<path d="M2.1472 20.516C1.74191 20.7961 1.5 21.2573 1.5 21.75V28C1.5 28.5577 1.80941 29.0693 2.30329 29.3284C2.79718 29.5874 3.39401 29.5511 3.8528 29.234L30.1103 11.0876L55.1197 29.2145C55.5762 29.5454 56.1796 29.5923 56.6817 29.3361C57.1839 29.0799 57.5 28.5638 57.5 28V21.75C57.5 21.2692 57.2696 20.8176 56.8803 20.5355L31.0112 1.78547C30.4961 1.41211 29.8015 1.40431 29.2782 1.76601L2.1472 20.516Z" fill="white" stroke="black" stroke-width="3" stroke-linejoin="round"/>
</svg>
