<svg width="96" height="66" viewBox="0 0 96 66" fill="none" xmlns="http://www.w3.org/2000/svg">
<mask id="path-1-outside-1_684_10329" maskUnits="userSpaceOnUse" x="0.15625" y="0.115234" width="96" height="66" fill="black">
<rect fill="white" x="0.15625" y="0.115234" width="96" height="66"/>
<path fill-rule="evenodd" clip-rule="evenodd" d="M87.1459 29.8052L89.8406 25.4852C90.3291 24.7018 90.5882 23.7972 90.5882 22.8742C90.5882 20.1493 88.3792 17.9406 85.6546 17.9406H72.3449L72.4004 17.7812C72.8562 16.4703 72.163 15.0382 70.8523 14.5825C69.5787 14.1399 68.1917 14.7809 67.6954 16.0188L70.2868 8.56627C70.8849 6.84621 69.9752 4.96677 68.2551 4.36862C66.5342 3.77064 63.8511 4.20789 63.2531 5.92795L57.026 25.2956L29.7158 36.3832C27.9053 34.8047 25.7019 33.6655 23.2718 33.1314L23.3735 33.0695C27.297 30.687 28.9891 26.0778 27.8867 21.8957L32.2983 19.733L34.0251 24.1589C34.6553 25.7788 36.4819 26.5789 38.0997 25.9469C38.1007 25.9465 38.1016 25.9461 38.1026 25.9457C38.1904 25.9115 38.2757 25.8737 38.3585 25.8327C39.8047 25.1169 40.4887 23.4014 39.8913 21.8698L34.4843 8.00612C33.8526 6.3866 32.0278 5.58582 30.4084 6.21749C28.7889 6.84915 27.9881 8.67404 28.6198 10.2934L30.5388 15.2138L25.6503 17.6104L24.1391 15.4258C24.0055 15.233 23.857 15.0581 23.6965 14.9014C22.5732 13.8042 20.8601 13.5947 19.5155 14.3336C19.1733 14.5211 18.8563 14.7704 18.578 15.0816L5.89017 29.283C3.70995 31.7223 3.57075 35.3657 5.55775 37.9656L7.34886 40.3097C6.18216 42.4083 5.51762 44.8245 5.51762 47.3959C5.51762 55.462 12.0565 62.0009 20.1226 62.0009C28.1886 62.0009 34.7275 55.462 34.7275 47.3959V47.395L62.5008 47.395C62.5008 55.4611 69.0396 61.9999 77.1057 61.9999C85.1718 61.9999 91.7106 55.4611 91.7106 47.395C91.7106 42.841 89.6263 38.7738 86.3596 36.0953L87.9235 34.1866C89.0626 32.7975 88.7044 30.6992 87.1459 29.8052ZM32.9886 40.4784C33.3472 41.1439 33.6556 41.8404 33.9089 42.5629H43.3502L39.9086 37.6689L32.9886 40.4784ZM46.0765 35.1648L52.9976 37.8244L55.0202 31.5338L46.0765 35.1648Z"/>
</mask>
<path fill-rule="evenodd" clip-rule="evenodd" d="M87.1459 29.8052L89.8406 25.4852C90.3291 24.7018 90.5882 23.7972 90.5882 22.8742C90.5882 20.1493 88.3792 17.9406 85.6546 17.9406H72.3449L72.4004 17.7812C72.8562 16.4703 72.163 15.0382 70.8523 14.5825C69.5787 14.1399 68.1917 14.7809 67.6954 16.0188L70.2868 8.56627C70.8849 6.84621 69.9752 4.96677 68.2551 4.36862C66.5342 3.77064 63.8511 4.20789 63.2531 5.92795L57.026 25.2956L29.7158 36.3832C27.9053 34.8047 25.7019 33.6655 23.2718 33.1314L23.3735 33.0695C27.297 30.687 28.9891 26.0778 27.8867 21.8957L32.2983 19.733L34.0251 24.1589C34.6553 25.7788 36.4819 26.5789 38.0997 25.9469C38.1007 25.9465 38.1016 25.9461 38.1026 25.9457C38.1904 25.9115 38.2757 25.8737 38.3585 25.8327C39.8047 25.1169 40.4887 23.4014 39.8913 21.8698L34.4843 8.00612C33.8526 6.3866 32.0278 5.58582 30.4084 6.21749C28.7889 6.84915 27.9881 8.67404 28.6198 10.2934L30.5388 15.2138L25.6503 17.6104L24.1391 15.4258C24.0055 15.233 23.857 15.0581 23.6965 14.9014C22.5732 13.8042 20.8601 13.5947 19.5155 14.3336C19.1733 14.5211 18.8563 14.7704 18.578 15.0816L5.89017 29.283C3.70995 31.7223 3.57075 35.3657 5.55775 37.9656L7.34886 40.3097C6.18216 42.4083 5.51762 44.8245 5.51762 47.3959C5.51762 55.462 12.0565 62.0009 20.1226 62.0009C28.1886 62.0009 34.7275 55.462 34.7275 47.3959V47.395L62.5008 47.395C62.5008 55.4611 69.0396 61.9999 77.1057 61.9999C85.1718 61.9999 91.7106 55.4611 91.7106 47.395C91.7106 42.841 89.6263 38.7738 86.3596 36.0953L87.9235 34.1866C89.0626 32.7975 88.7044 30.6992 87.1459 29.8052ZM32.9886 40.4784C33.3472 41.1439 33.6556 41.8404 33.9089 42.5629H43.3502L39.9086 37.6689L32.9886 40.4784ZM46.0765 35.1648L52.9976 37.8244L55.0202 31.5338L46.0765 35.1648Z" fill="#062679"/>
<path d="M89.8406 25.4852L93.2345 27.6021L93.2346 27.6019L89.8406 25.4852ZM87.1459 29.8052L83.752 27.6883L81.5555 31.2098L85.1556 33.2749L87.1459 29.8052ZM72.3449 17.9406L68.5668 16.6269L66.7192 21.9406H72.3449V17.9406ZM72.4004 17.7812L68.6223 16.4673L68.6222 16.4675L72.4004 17.7812ZM70.8523 14.5825L72.1659 10.8044L72.1653 10.8041L70.8523 14.5825ZM67.6954 16.0188L63.9173 14.7051L71.4082 17.5073L67.6954 16.0188ZM70.2868 8.56627L66.5087 7.25245L66.5086 7.25258L70.2868 8.56627ZM68.2551 4.36862L69.569 0.590539L69.568 0.590221L68.2551 4.36862ZM63.2531 5.92795L59.475 4.61447L59.4595 4.65885L59.4451 4.70358L63.2531 5.92795ZM57.026 25.2956L58.5306 29.0018L60.262 28.2989L60.834 26.5199L57.026 25.2956ZM29.7158 36.3832L27.0872 39.3982L28.9413 41.0147L31.2205 40.0894L29.7158 36.3832ZM23.2718 33.1314L21.195 29.7128L12.6637 34.8955L22.4132 37.0381L23.2718 33.1314ZM23.3735 33.0695L21.2973 29.6506L21.2967 29.6509L23.3735 33.0695ZM27.8867 21.8957L26.1259 18.3041L23.1836 19.7466L24.0188 22.9153L27.8867 21.8957ZM32.2983 19.733L36.0247 18.279L34.4434 14.2265L30.5375 16.1414L32.2983 19.733ZM34.0251 24.1589L37.753 22.7088L37.7515 22.7049L34.0251 24.1589ZM38.0997 25.9469L36.6492 22.2191L36.6442 22.2211L38.0997 25.9469ZM38.1026 25.9457L36.6491 22.2191L36.6459 22.2204L38.1026 25.9457ZM38.3585 25.8327L36.5841 22.2479L36.584 22.2479L38.3585 25.8327ZM39.8913 21.8698L36.1647 23.3232L36.1647 23.3234L39.8913 21.8698ZM34.4843 8.00612L38.2109 6.55271L38.2109 6.55264L34.4843 8.00612ZM30.4084 6.21749L31.8619 9.94406L31.862 9.94401L30.4084 6.21749ZM28.6198 10.2934L32.3464 8.83998L32.3463 8.83977L28.6198 10.2934ZM30.5388 15.2138L32.2996 18.8054L35.6016 17.1866L34.2654 13.7604L30.5388 15.2138ZM25.6503 17.6104L22.3607 19.886L24.3195 22.7176L27.4111 21.202L25.6503 17.6104ZM24.1391 15.4258L27.4287 13.1502L27.4268 13.1474L24.1391 15.4258ZM23.6965 14.9014L20.9016 17.7629L20.9016 17.7629L23.6965 14.9014ZM19.5155 14.3336L21.437 17.8419L21.442 17.8391L19.5155 14.3336ZM18.578 15.0816L15.5959 12.4157L15.5951 12.4166L18.578 15.0816ZM5.89017 29.283L8.87253 31.9486L8.87308 31.948L5.89017 29.283ZM5.55775 37.9656L8.73612 35.537L8.73584 35.5366L5.55775 37.9656ZM7.34886 40.3097L10.8449 42.2533L12.1181 39.9631L10.5272 37.8811L7.34886 40.3097ZM34.7275 47.395V43.395H30.7275V47.395H34.7275ZM62.5008 47.395H66.5008V43.395H62.5008V47.395ZM86.3596 36.0953L83.2655 33.5602L80.7313 36.6532L83.8234 39.1885L86.3596 36.0953ZM87.9235 34.1866L84.8305 31.6502L84.8295 31.6514L87.9235 34.1866ZM33.9089 42.5629L30.1341 43.8861L31.0724 46.5629H33.9089V42.5629ZM32.9886 40.4784L31.4839 36.7722L27.352 38.4498L29.4672 42.3757L32.9886 40.4784ZM43.3502 42.5629V46.5629H51.0531L46.6221 40.262L43.3502 42.5629ZM39.9086 37.6689L43.1806 35.368L41.351 32.7663L38.4039 33.9627L39.9086 37.6689ZM52.9976 37.8244L51.5628 41.5582L55.511 43.0754L56.8056 39.0488L52.9976 37.8244ZM46.0765 35.1648L44.5718 31.4586L35.1912 35.2671L44.6417 38.8987L46.0765 35.1648ZM55.0202 31.5338L58.8282 32.7581L61.4492 24.6066L53.5155 27.8276L55.0202 31.5338ZM86.4467 23.3682L83.752 27.6883L90.5398 31.9222L93.2345 27.6021L86.4467 23.3682ZM86.5882 22.8742C86.5882 23.0485 86.5393 23.2198 86.4466 23.3684L93.2346 27.6019C94.119 26.1839 94.5882 24.546 94.5882 22.8742H86.5882ZM85.6546 21.9406C86.1702 21.9406 86.5882 22.3586 86.5882 22.8742H94.5882C94.5882 17.9401 90.5883 13.9406 85.6546 13.9406V21.9406ZM72.3449 21.9406H85.6546V13.9406H72.3449V21.9406ZM68.6222 16.4675L68.5668 16.6269L76.1231 19.2543L76.1785 19.0949L68.6222 16.4675ZM69.5387 18.3607C68.7627 18.0909 68.3525 17.2432 68.6223 16.4673L76.1784 19.0951C77.36 15.6975 75.5633 11.9856 72.1659 10.8044L69.5387 18.3607ZM71.4082 17.5073C71.1129 18.2436 70.2924 18.6226 69.5393 18.3609L72.1653 10.8041C68.865 9.65729 65.2705 11.3181 63.9827 14.5303L71.4082 17.5073ZM66.5086 7.25258L63.9173 14.7051L71.4735 17.3325L74.0649 9.87997L66.5086 7.25258ZM66.9413 8.1467C66.5751 8.01934 66.3811 7.61923 66.5087 7.25245L74.0648 9.8801C75.3887 6.07319 73.3753 1.9142 69.569 0.590539L66.9413 8.1467ZM67.0313 7.24144C66.8807 7.67481 66.6192 7.94312 66.4542 8.0676C66.3104 8.17612 66.2481 8.17407 66.3389 8.1505C66.4209 8.12918 66.5521 8.11117 66.7027 8.11603C66.7733 8.1183 66.8338 8.12521 66.8804 8.13337C66.9278 8.14169 66.9481 8.14905 66.9422 8.14701L69.568 0.590221C67.9199 0.0175452 66.01 -0.029635 64.3272 0.407539C62.704 0.829255 60.3905 1.9808 59.475 4.61447L67.0313 7.24144ZM60.834 26.5199L67.0612 7.15233L59.4451 4.70358L53.2179 24.0712L60.834 26.5199ZM31.2205 40.0894L58.5306 29.0018L55.5213 21.5894L28.2111 32.677L31.2205 40.0894ZM22.4132 37.0381C24.1709 37.4244 25.7693 38.2492 27.0872 39.3982L32.3444 33.3682C30.0413 31.3603 27.233 29.9065 24.1304 29.2246L22.4132 37.0381ZM21.2967 29.6509L21.195 29.7128L25.3486 36.55L25.4503 36.4882L21.2967 29.6509ZM24.0188 22.9153C24.6851 25.4431 23.6553 28.2187 21.2973 29.6506L25.4497 36.4885C30.9387 33.1553 33.293 26.7126 31.7546 20.8762L24.0188 22.9153ZM30.5375 16.1414L26.1259 18.3041L29.6475 25.4874L34.059 23.3246L30.5375 16.1414ZM28.5719 21.187L30.2988 25.6129L37.7515 22.7049L36.0247 18.279L28.5719 21.187ZM30.2973 25.6091C31.7302 29.2926 35.8803 31.1083 39.5552 29.6726L36.6442 22.2211C37.0835 22.0495 37.5804 22.265 37.753 22.7088L30.2973 25.6091ZM39.5502 29.6746C39.5625 29.6698 39.5726 29.6658 39.579 29.6632C39.5851 29.6609 39.59 29.6589 39.5902 29.6588C39.5908 29.6585 39.5899 29.6589 39.5891 29.6592C39.5881 29.6596 39.5861 29.6604 39.5836 29.6614C39.5788 29.6634 39.5702 29.6668 39.5594 29.671L36.6459 22.2204C36.6346 22.2248 36.6255 22.2284 36.6202 22.2305C36.6174 22.2316 36.6152 22.2325 36.614 22.233C36.6129 22.2334 36.6117 22.2339 36.6122 22.2337C36.6122 22.2337 36.6133 22.2333 36.6148 22.2327C36.6163 22.2321 36.6188 22.2311 36.6218 22.2299C36.6277 22.2275 36.6373 22.2237 36.6492 22.2191L39.5502 29.6746ZM36.584 22.2479C36.606 22.237 36.6278 22.2274 36.6491 22.2191L39.5561 29.6723C39.753 29.5955 39.9454 29.5105 40.133 29.4176L36.584 22.2479ZM36.1647 23.3234C36.002 22.9062 36.1887 22.4436 36.5841 22.2479L40.133 29.4176C43.4207 27.7902 44.9754 23.8966 43.6178 20.4162L36.1647 23.3234ZM30.7577 9.45954L36.1647 23.3232L43.6179 20.4164L38.2109 6.55271L30.7577 9.45954ZM31.862 9.94401C31.423 10.1153 30.9288 9.89808 30.7577 9.45961L38.2109 6.55264C36.7765 2.87512 32.6325 1.05639 28.9548 2.49096L31.862 9.94401ZM32.3463 8.83977C32.5175 9.27877 32.3004 9.77305 31.8619 9.94406L28.9549 2.49091C25.2774 3.92526 23.4587 8.06932 24.8932 11.747L32.3463 8.83977ZM34.2654 13.7604L32.3464 8.83998L24.8932 11.7468L26.8122 16.6672L34.2654 13.7604ZM27.4111 21.202L32.2996 18.8054L28.778 11.6222L23.8895 14.0188L27.4111 21.202ZM20.8495 17.7015L22.3607 19.886L28.9399 15.3347L27.4287 13.1502L20.8495 17.7015ZM20.9016 17.7629C20.8799 17.7417 20.8633 17.7213 20.8514 17.7042L27.4268 13.1474C27.1477 12.7447 26.8342 12.3746 26.4915 12.0399L20.9016 17.7629ZM21.442 17.8391C21.3438 17.8931 21.2465 17.9052 21.166 17.8946C21.0816 17.8835 20.9832 17.8426 20.9016 17.7629L26.4915 12.0399C24.0868 9.69115 20.4516 9.25491 17.5889 10.8281L21.442 17.8391ZM21.5602 17.7475C21.537 17.7734 21.4959 17.8096 21.437 17.8419L17.5939 10.8254C16.8507 11.2325 16.1755 11.7673 15.5959 12.4157L21.5602 17.7475ZM8.87308 31.948L21.561 17.7466L15.5951 12.4166L2.90726 26.618L8.87308 31.948ZM8.73584 35.5366C7.91382 34.4611 7.97226 32.9558 8.87253 31.9486L2.90781 26.6173C-0.552372 30.4887 -0.772313 36.2704 2.37965 40.3945L8.73584 35.5366ZM10.5272 37.8811L8.73612 35.537L2.37937 40.3941L4.17049 42.7382L10.5272 37.8811ZM9.51762 47.3959C9.51762 45.5219 10.0002 43.7727 10.8449 42.2533L3.8528 38.3661C2.36408 41.0439 1.51762 44.1271 1.51762 47.3959H9.51762ZM20.1226 58.0009C14.2656 58.0009 9.51762 53.2529 9.51762 47.3959H1.51762C1.51762 57.6711 9.84733 66.0009 20.1226 66.0009V58.0009ZM30.7275 47.3959C30.7275 53.2529 25.9795 58.0009 20.1226 58.0009V66.0009C30.3978 66.0009 38.7275 57.6711 38.7275 47.3959H30.7275ZM30.7275 47.395V47.3959H38.7275V47.395H30.7275ZM62.5008 43.395L34.7275 43.395V51.395L62.5008 51.395V43.395ZM77.1057 57.9999C71.2487 57.9999 66.5008 53.2519 66.5008 47.395H58.5008C58.5008 57.6702 66.8305 65.9999 77.1057 65.9999V57.9999ZM87.7106 47.395C87.7106 53.2519 82.9626 57.9999 77.1057 57.9999V65.9999C87.3809 65.9999 95.7106 57.6702 95.7106 47.395H87.7106ZM83.8234 39.1885C86.2033 41.1398 87.7106 44.0897 87.7106 47.395H95.7106C95.7106 41.5922 93.0493 36.4077 88.8958 33.0021L83.8234 39.1885ZM84.8295 31.6514L83.2655 33.5602L89.4537 38.6304L91.0176 36.7217L84.8295 31.6514ZM85.1556 33.2749C84.5113 32.9053 84.4436 32.122 84.8305 31.6502L91.0166 36.7229C93.6815 33.473 92.8974 28.4931 89.1362 26.3356L85.1556 33.2749ZM37.6837 41.2396C37.3605 40.3177 36.967 39.4294 36.51 38.5811L29.4672 42.3757C29.7273 42.8585 29.9507 43.3632 30.1341 43.8861L37.6837 41.2396ZM43.3502 38.5629H33.9089V46.5629H43.3502V38.5629ZM36.6367 39.9699L40.0782 44.8638L46.6221 40.262L43.1806 35.368L36.6367 39.9699ZM34.4933 44.1846L41.4133 41.3751L38.4039 33.9627L31.4839 36.7722L34.4933 44.1846ZM54.4324 34.0906L47.5113 31.431L44.6417 38.8987L51.5628 41.5582L54.4324 34.0906ZM51.2122 30.3094L49.1896 36.6L56.8056 39.0488L58.8282 32.7581L51.2122 30.3094ZM47.5812 38.871L56.5249 35.24L53.5155 27.8276L44.5718 31.4586L47.5812 38.871Z" fill="black" mask="url(#path-1-outside-1_684_10329)"/>
<path d="M54.4828 38.6626L42.5524 34.0781L39.0312 37.5991L44.0259 44.7017L52.4823 45.4021L54.4828 38.6626Z" fill="#062679"/>
<path d="M86.2716 29.735L88.967 25.4137C89.4555 24.6304 89.7146 23.7258 89.7146 22.8028C89.7146 20.0779 87.5057 17.8691 84.781 17.8691H69.9823L64.6094 32.7215L86.2716 29.735Z" fill="#FFE177"/>
<path d="M64.6094 32.7196L86.2716 29.7352L88.968 25.4132C89.4571 24.6304 89.7162 23.7258 89.7162 22.8019C89.7162 21.4392 89.1633 20.206 88.2704 19.313C87.3774 18.4201 86.1442 17.8691 84.7815 17.8691H78.3275C79.6902 17.8691 80.9234 18.4199 81.8145 19.313C82.7075 20.206 83.2603 21.4392 83.2603 22.8019C83.2603 23.7258 83.0012 24.6304 82.5142 25.4132L79.8178 29.7352L64.9478 31.7841L64.6094 32.7196Z" fill="#FFA05B"/>
<path d="M21.5826 24.2145C21.9397 24.2145 22.3022 24.1349 22.6444 23.9672L34.4449 18.182C35.6431 17.5946 36.1381 16.1471 35.5508 14.9489C34.9634 13.7507 33.5162 13.2554 32.3177 13.8431L20.5171 19.6283C19.319 20.2157 18.8239 21.6632 19.4113 22.8613C19.8309 23.7172 20.6895 24.2145 21.5826 24.2145Z" fill="#2ABCC8"/>
<path d="M60.0209 44.9095L62.9706 27.015L66.7813 16.0558L69.4097 8.49664C70.0078 6.77657 69.0981 4.89713 67.3781 4.29898C65.6571 3.701 63.7784 4.61054 63.1804 6.33061L50.4876 42.8335C49.8898 44.5536 59.5474 46.2713 60.0209 44.9095Z" fill="#016197"/>
<path d="M56.2578 45.2579C58.1559 45.5073 59.8298 45.457 60.0211 44.91L65.6521 26.9364L66.7826 16.0554L69.4113 8.49578C70.0086 6.77742 69.0982 4.89679 67.3778 4.29949C66.4404 3.97288 65.4546 4.09463 64.6562 4.55274C66.0093 5.32394 66.6625 6.9727 66.1329 8.49595L63.5042 16.0556L59.6925 27.0152L56.7428 44.9101C56.6887 45.0647 56.5188 45.1788 56.2578 45.2579Z" fill="#062679"/>
<path d="M4.68275 37.8955L7.77542 41.943L10.899 40.0468L10.9009 40.045L22.4985 32.9995C27.4545 29.9899 28.8501 23.4277 25.5507 18.6612L23.2641 15.3558C22.1952 13.8134 20.1772 13.419 18.6405 14.2636C18.2983 14.451 17.9813 14.7003 17.703 15.0115L5.01517 29.2129C2.83495 31.6522 2.69575 35.2957 4.68275 37.8955Z" fill="#FFE177"/>
<path d="M10.8984 40.045L22.496 32.9995C27.4521 29.9899 28.8476 23.4277 25.5482 18.6612L23.2616 15.3558C22.1927 13.8134 20.1747 13.419 18.638 14.2636L20.0219 19.8356C21.0041 23.7902 20.134 27.9771 17.6575 31.2131L10.8984 40.045Z" fill="#FFA05B"/>
<path d="M23.1463 38.6264L64.8166 21.7087L66.7804 16.0611C67.2361 14.7504 68.6677 14.0574 69.979 14.5131C71.2897 14.9688 71.983 16.4009 71.5271 17.7118L61.8551 45.5272C61.4943 46.5649 60.5218 47.2154 59.4818 47.2154C59.1911 47.2154 58.895 47.1645 58.6055 47.0571C57.311 46.5764 56.6821 45.1026 57.1356 43.7984L60.9322 32.8795C61.5897 30.9887 59.7123 29.2049 57.8577 29.9578L25.0368 43.2828C24.7273 43.4085 24.4072 43.468 24.0924 43.468C23.1 43.468 22.1596 42.876 21.7634 41.8998C21.2412 40.6139 21.8606 39.1484 23.1463 38.6264Z" fill="#40C5D0"/>
<path d="M87.0489 34.1171L79.7701 43.0008L76.2258 47.3255H18.1797V42.4934H46.231C51.5551 42.4934 56.6105 39.9827 59.6865 35.6373C62.092 32.2392 65.5184 29.6156 69.5194 28.2139C71.6174 27.474 73.8758 27.0742 76.2258 27.0742C79.8811 27.0742 83.3073 28.0414 86.2687 29.7343C87.8294 30.6274 88.1886 32.7272 87.0489 34.1171Z" fill="#2ABCC8"/>
<path d="M87.0451 34.1171L79.7663 43.0008C74.9994 40.7142 70.7311 37.8604 71.8409 35.299C74.138 29.9932 69.6283 28.2562 69.5156 28.2139C71.6136 27.474 73.872 27.0742 76.222 27.0742C79.8773 27.0742 83.3035 28.0414 86.2649 29.7343C87.8256 30.6274 88.1848 32.7272 87.0451 34.1171Z" fill="#40C5D0"/>
<path d="M76.2299 61.9306C84.296 61.9306 90.8349 55.3917 90.8349 47.3256C90.8349 39.2596 84.296 32.7207 76.2299 32.7207C68.1639 32.7207 61.625 39.2596 61.625 47.3256C61.625 55.3917 68.1639 61.9306 76.2299 61.9306Z" fill="#016197"/>
<path d="M76.2291 54.3976C80.1353 54.3976 83.3019 51.231 83.3019 47.3248C83.3019 43.4186 80.1353 40.252 76.2291 40.252C72.3229 40.252 69.1562 43.4186 69.1562 47.3248C69.1562 51.231 72.3229 54.3976 76.2291 54.3976Z" fill="#DFF6FD"/>
<path d="M19.2456 61.9325C27.3116 61.9325 33.8505 55.3937 33.8505 47.3276C33.8505 39.2615 27.3116 32.7227 19.2456 32.7227C11.1795 32.7227 4.64062 39.2615 4.64062 47.3276C4.64062 55.3937 11.1795 61.9325 19.2456 61.9325Z" fill="#016197"/>
<path d="M19.2447 54.4015C23.1509 54.4015 26.3175 51.2349 26.3175 47.3287C26.3175 43.4225 23.1509 40.2559 19.2447 40.2559C15.3385 40.2559 12.1719 43.4225 12.1719 47.3287C12.1719 51.2349 15.3385 54.4015 19.2447 54.4015Z" fill="#DFF6FD"/>
<path d="M37.2301 25.8778C38.8496 25.2461 39.6504 23.4212 39.0188 21.8019L33.6118 7.93824C32.9801 6.31871 31.1552 5.51793 29.5359 6.1496C27.9164 6.78126 27.1156 8.60615 27.7473 10.2255L33.1542 24.0892C33.7857 25.7087 35.6106 26.5095 37.2301 25.8778Z" fill="#016197"/>
<path d="M30.8438 18.1831L33.1478 24.0881C33.7779 25.708 35.6045 26.5081 37.2223 25.8761C38.8422 25.246 39.6443 23.4194 39.0122 21.8016L36.7081 15.8965C37.3401 17.5162 36.54 19.3409 34.9202 19.971C33.3005 20.603 31.4759 19.8028 30.8438 18.1831Z" fill="#062679"/>
</svg>
