<svg width="82" height="82" viewBox="0 0 82 82" fill="none" xmlns="http://www.w3.org/2000/svg">
<g clip-path="url(#clip0_729_10720)">
<path d="M59.3143 45.9853V37.748H52.4499V43.2396H33.2295L31.8566 37.748H24.9922L35.9753 80.3074H74.416L59.3143 45.9853ZM34.6025 48.731H53.8229L64.806 74.8158H41.4669L34.6025 48.731Z" fill="#D12136"/>
<path d="M49.2222 48.7312H53.8227L54.6698 50.7397C57.5418 51.8942 60.3494 53.171 63.0911 54.5672L59.3143 45.9853V37.748H52.4499V43.2396H33.2295L31.8566 37.748H24.9922L26.5503 43.7888C34.2689 44.5838 41.8732 46.2408 49.2222 48.7312Z" fill="#9C1928"/>
<path d="M1.65719 8.92319L10.0139 33.9921C10.7607 36.234 12.8599 37.747 15.2227 37.747H75.138C78.1707 37.747 80.6296 35.2881 80.6296 32.2554C80.6296 31.1708 80.3083 30.1109 79.707 29.2089L68.2736 12.063C66.9419 10.0654 64.8043 8.74894 62.4211 8.45649L7.53457 1.73478C4.52381 1.36546 1.78483 3.50721 1.41551 6.51797C1.3167 7.32788 1.39918 8.149 1.65719 8.92319Z" fill="#FFBC05"/>
<path d="M68.2716 12.0638C67.5536 10.993 66.594 10.1061 65.4695 9.47461C50.9498 24.682 30.9072 33.3834 9.88281 33.6057L10.0119 33.9928C10.7587 36.2346 12.8579 37.7476 15.2206 37.7476H75.136C78.1687 37.7476 80.6276 35.2888 80.6276 32.2561C80.6276 31.1715 80.3063 30.1116 79.7049 29.2096L68.2716 12.0638Z" fill="#E38100"/>
<path d="M69.4203 11.3029C67.8662 8.97172 65.373 7.43423 62.5916 7.09374L7.70095 0.372023C3.93794 -0.0892245 0.513977 2.58649 0.0512877 6.3495C-0.0736334 7.36264 0.0306277 8.38956 0.353341 9.35754L8.71009 34.4278C9.64507 37.2311 12.2686 39.1203 15.223 39.1203H23.9284L34.9115 81.6797H76.5208L60.6874 45.6965V39.1203H75.1369C78.9275 39.1203 82.0013 36.0465 81.9999 32.2545C81.9999 30.8994 81.599 29.576 80.8481 28.4489L69.4203 11.3029ZM72.3131 78.9338H37.0395L26.7649 39.1202H30.7846L32.1575 44.6117H53.8215V39.1202H57.9402V46.2729L72.3131 78.9338ZM33.6155 39.1203H51.0773V41.866H34.3019L33.6155 39.1203ZM78.7697 34.1999C78.0626 35.5493 76.6597 36.3882 75.1371 36.3745H15.2231C13.4494 36.3745 11.876 35.2404 11.3145 33.5586L2.95779 8.48853C2.23837 6.33044 3.40398 3.99778 5.56207 3.27852C5.97944 3.13855 6.4173 3.06712 6.85805 3.06712C7.02829 3.06712 7.1971 3.07817 7.36606 3.09867L62.258 9.82583C64.2446 10.0688 66.0252 11.1657 67.1359 12.8311L78.5692 29.9716C79.4232 31.2317 79.5015 32.864 78.7697 34.1999Z" fill="black"/>
<path d="M32.8203 47.3574L40.4014 76.1879H66.8719L54.7329 47.3574H32.8203ZM42.524 73.4422L36.3831 50.1033H52.9099L62.737 73.4422H42.524Z" fill="black"/>
<path d="M56.566 25.3918C58.0824 25.3918 59.3117 24.1625 59.3117 22.6461C59.3117 21.1297 58.0824 19.9004 56.566 19.9004C55.0496 19.9004 53.8203 21.1297 53.8203 22.6461C53.8203 24.1625 55.0496 25.3918 56.566 25.3918Z" fill="black"/>
<path d="M27.7301 24.0187C29.2465 24.0187 30.4758 22.7895 30.4758 21.273C30.4758 19.7566 29.2465 18.5273 27.7301 18.5273C26.2137 18.5273 24.9844 19.7566 24.9844 21.273C24.9844 22.7895 26.2137 24.0187 27.7301 24.0187Z" fill="black"/>
</g>
<defs>
<clipPath id="clip0_729_10720">
<rect width="82" height="82" fill="white"/>
</clipPath>
</defs>
</svg>
