<svg width="87" height="75" viewBox="0 0 87 75" fill="none" xmlns="http://www.w3.org/2000/svg">
<path d="M48.7282 30.2773C44.6921 30.2773 41.4141 33.5553 41.4141 37.5915C41.4141 41.6277 44.6921 44.9057 48.7282 44.9057C52.7644 44.9057 56.0424 41.6277 56.0424 37.5915C56.0424 33.5554 52.7644 30.2773 48.7282 30.2773Z" stroke="black" stroke-width="7"/>
<path d="M51.5079 20.7326L49.7656 20.4474V22.2129V29.0909V30.2093L50.8375 30.5285C52.4621 31.0123 53.8572 32.0446 54.8033 33.414L55.4384 34.3332L56.501 33.9879L63.0428 31.8622L64.7257 31.3153L63.9107 29.7447C61.4737 25.0486 56.9177 21.6181 51.5079 20.7326Z" stroke="black" stroke-width="3"/>
<path d="M65.6094 35.0151L65.3441 33.2674L63.6629 33.8137L57.119 35.94L56.0555 36.2855L56.083 37.4034C56.0847 37.4718 56.086 37.5044 56.087 37.5267C56.0879 37.5493 56.0884 37.5614 56.0884 37.5893C56.0884 39.2708 55.5218 40.8196 54.5678 42.0629L53.8859 42.9516L54.5443 43.8578L58.5846 49.4186L59.623 50.8478L60.8649 49.5914C63.9138 46.5069 65.8034 42.2645 65.8034 37.5893C65.8034 36.715 65.737 35.8553 65.6094 35.0151Z" stroke="black" stroke-width="3"/>
<path d="M6.56529 13.6966H6.56507C4.06541 13.6968 2.03906 15.7235 2.03906 18.2231C2.03906 20.7228 4.06557 22.7493 6.56529 22.7493H16.7712C14.6679 27.2633 13.4915 32.2933 13.4915 37.5906C13.4915 43.8309 15.1224 49.7001 17.9786 54.7912H14.4399C11.9402 54.7912 9.91365 56.8177 9.91365 59.3174C9.91365 61.5993 11.6024 63.4869 13.7983 63.7985H6.82586C4.32614 63.7985 2.29963 65.825 2.29963 68.3247C2.29963 70.8244 4.32614 72.851 6.82586 72.851H48.7521C68.1968 72.851 84.0126 57.0348 84.0126 37.5904C84.0126 18.1461 68.1966 2.33008 48.7521 2.33008H18.0178C15.5181 2.33008 13.4916 4.35658 13.4916 6.85631C13.4916 9.35603 15.5181 11.3825 18.0178 11.3825H25.1884C24.3718 12.1172 23.5897 12.8895 22.8448 13.6966H6.56529ZM59.8316 52.5631L59.7805 52.601L59.7319 52.6422L59.7224 52.6502L59.714 52.6573L59.7006 52.6687L59.6947 52.6736C59.6866 52.6791 59.677 52.6854 59.6657 52.6923L59.6049 52.7294L59.547 52.7708C56.4982 54.9456 52.7738 56.225 48.7521 56.225C44.7304 56.225 41.0061 54.9456 37.9572 52.7708L37.8983 52.7287L37.8366 52.6911C37.8277 52.6857 37.8194 52.6803 37.8118 52.6751L37.7996 52.665L37.784 52.652L37.764 52.6352L37.7194 52.5978L37.6726 52.5631C33.0866 49.1596 30.1176 43.7137 30.1176 37.5906C30.1176 27.3172 38.4788 18.956 48.7521 18.956C59.0255 18.956 67.3867 27.3172 67.3867 37.5906C67.3867 43.7139 64.4178 49.1596 59.8316 52.5631ZM59.7118 52.6614L59.7048 52.6664C59.7069 52.6649 59.7093 52.6632 59.7118 52.6614Z" fill="url(#paint0_linear_696_9721)" stroke="black" stroke-width="4"/>
<path d="M33.5592 29.7447L32.7441 31.3153L34.4271 31.8622L40.9688 33.9879L42.0312 34.3331L42.6663 33.4142C43.6128 32.0447 45.0078 31.0124 46.6325 30.5285L47.7043 30.2092V29.0909V22.2129V20.4473L45.9619 20.7326C40.5524 21.6183 35.9964 25.0486 33.5592 29.7447Z" stroke="black" stroke-width="3"/>
<path d="M52.9073 45.0675L52.2489 44.1614L51.1931 44.5353C50.4257 44.807 49.6021 44.9562 48.7425 44.9562C47.8832 44.9562 47.0592 44.807 46.2919 44.5353L45.2361 44.1614L44.5777 45.0675L40.5365 50.6295L39.4997 52.0564L41.0746 52.8506C43.3825 54.0144 45.9887 54.6711 48.7425 54.6711C51.4963 54.6711 54.1025 54.0146 56.4105 52.8505L57.9852 52.0563L56.9485 50.6295L52.9073 45.0675Z" stroke="black" stroke-width="3"/>
<path d="M41.3922 37.4034L41.4197 36.2855L40.3562 35.94L33.8124 33.8137L32.1312 33.2674L31.8658 35.0151C31.7383 35.8553 31.6719 36.715 31.6719 37.5893C31.6719 42.2647 33.5616 46.5071 36.6105 49.5917L37.8524 50.8481L38.8908 49.4189L42.9311 43.8577L43.5895 42.9516L42.9076 42.0629C41.9538 40.8198 41.3872 39.2708 41.3872 37.5893C41.3872 37.561 41.3878 37.5461 41.3887 37.5192C41.3896 37.4955 41.3908 37.4627 41.3922 37.4034Z" stroke="black" stroke-width="3"/>
<defs>
<linearGradient id="paint0_linear_696_9721" x1="32.5386" y1="2.35909" x2="70.9757" y2="58.1004" gradientUnits="userSpaceOnUse">
<stop stop-color="#41FFD1"/>
<stop offset="0.965" stop-color="#6B39F9"/>
</linearGradient>
</defs>
</svg>
