<svg width="19" height="20" viewBox="0 0 19 20" fill="none" xmlns="http://www.w3.org/2000/svg">
<path d="M12.8828 12.5189C12.7006 13.0989 12.3812 13.6263 11.9518 14.0562C11.5224 14.4861 10.9957 14.8059 10.4164 14.9883C10.3318 15.0147 10.2438 15.0281 10.1553 15.0283C9.94716 15.0284 9.7459 14.954 9.58794 14.8183C9.42997 14.6827 9.32576 14.4949 9.29419 14.289C9.26261 14.083 9.30576 13.8726 9.41581 13.6958C9.52587 13.519 9.69554 13.3875 9.8941 13.3251C10.2063 13.2269 10.4902 13.0546 10.7215 12.823C10.9529 12.5913 11.125 12.3071 11.2231 11.9945C11.2574 11.8853 11.3128 11.7839 11.3862 11.6962C11.4597 11.6084 11.5496 11.536 11.651 11.4831C11.8558 11.3761 12.0945 11.355 12.3148 11.4244C12.4239 11.4587 12.5252 11.5142 12.6128 11.5877C12.7005 11.6613 12.7728 11.7513 12.8257 11.8528C12.8786 11.9543 12.911 12.0653 12.921 12.1793C12.9311 12.2933 12.9186 12.4083 12.8843 12.5175L12.8828 12.5189ZM15.9572 11.3859C15.9572 13.1581 15.2541 14.8576 14.0025 16.1108C12.7509 17.3639 11.0533 18.0679 9.28329 18.0679C7.51326 18.0679 5.81572 17.3639 4.56412 16.1108C3.31252 14.8576 2.60938 13.1581 2.60938 11.3859C2.60938 9.29341 3.42693 7.16026 5.0381 5.04672C5.11273 4.94879 5.20725 4.8678 5.31543 4.80911C5.4236 4.75042 5.54297 4.71536 5.66567 4.70623C5.78837 4.6971 5.91161 4.71412 6.02726 4.75616C6.14291 4.7982 6.24834 4.86431 6.33661 4.95012L7.76497 6.33809L9.21075 2.37175C9.25855 2.24052 9.33716 2.12271 9.43995 2.02826C9.54275 1.93381 9.66671 1.86548 9.80139 1.82903C9.93608 1.79258 10.0775 1.78907 10.2139 1.8188C10.3502 1.84854 10.4774 1.91064 10.5847 1.99988C12.1995 3.34209 15.9572 6.94455 15.9572 11.3859ZM14.2162 11.3859C14.2162 8.35648 11.9957 5.6924 10.4062 4.17443L8.94016 8.19814C8.8904 8.33473 8.80731 8.45668 8.69844 8.55289C8.58958 8.6491 8.45841 8.71652 8.31687 8.74901C8.17533 8.7815 8.02792 8.77802 7.88807 8.73889C7.74822 8.69976 7.62037 8.62622 7.51615 8.52498L5.85275 6.90896C4.85819 8.43565 4.3504 9.93764 4.3504 11.3859C4.3504 12.6957 4.87011 13.952 5.79521 14.8782C6.7203 15.8044 7.975 16.3247 9.28329 16.3247C10.5916 16.3247 11.8463 15.8044 12.7714 14.8782C13.6965 13.952 14.2162 12.6957 14.2162 11.3859Z" fill="#EBA216"/>
<path d="M12.8828 12.5189C12.7006 13.0989 12.3812 13.6263 11.9518 14.0562C11.5224 14.4861 10.9957 14.8059 10.4164 14.9883C10.3318 15.0147 10.2438 15.0281 10.1553 15.0283C9.94716 15.0284 9.7459 14.954 9.58794 14.8183C9.42997 14.6827 9.32576 14.4949 9.29419 14.289C9.26261 14.083 9.30576 13.8726 9.41581 13.6958C9.52587 13.519 9.69554 13.3875 9.8941 13.3251C10.2063 13.2269 10.4902 13.0546 10.7215 12.823C10.9529 12.5913 11.125 12.3071 11.2231 11.9945C11.2574 11.8853 11.3128 11.7839 11.3862 11.6962C11.4597 11.6084 11.5496 11.536 11.651 11.4831C11.8558 11.3761 12.0945 11.355 12.3148 11.4244C12.4239 11.4587 12.5252 11.5142 12.6128 11.5877C12.7005 11.6613 12.7728 11.7513 12.8257 11.8528C12.8786 11.9543 12.911 12.0653 12.921 12.1793C12.9311 12.2933 12.9186 12.4083 12.8843 12.5175L12.8828 12.5189ZM15.9572 11.3859C15.9572 13.1581 15.2541 14.8576 14.0025 16.1108C12.7509 17.3639 11.0533 18.0679 9.28329 18.0679C7.51326 18.0679 5.81572 17.3639 4.56412 16.1108C3.31252 14.8576 2.60938 13.1581 2.60938 11.3859C2.60938 9.29341 3.42693 7.16026 5.0381 5.04672C5.11273 4.94879 5.20725 4.8678 5.31543 4.80911C5.4236 4.75042 5.54297 4.71536 5.66567 4.70623C5.78837 4.6971 5.91161 4.71412 6.02726 4.75616C6.14291 4.7982 6.24834 4.86431 6.33661 4.95012L7.76497 6.33809L9.21075 2.37175C9.25855 2.24052 9.33716 2.12271 9.43995 2.02826C9.54275 1.93381 9.66671 1.86548 9.80139 1.82903C9.93608 1.79258 10.0775 1.78907 10.2139 1.8188C10.3502 1.84854 10.4774 1.91064 10.5847 1.99988C12.1995 3.34209 15.9572 6.94455 15.9572 11.3859ZM14.2162 11.3859C14.2162 8.35648 11.9957 5.6924 10.4062 4.17443L8.94016 8.19814C8.8904 8.33473 8.80731 8.45668 8.69844 8.55289C8.58958 8.6491 8.45841 8.71652 8.31687 8.74901C8.17533 8.7815 8.02792 8.77802 7.88807 8.73889C7.74822 8.69976 7.62037 8.62622 7.51615 8.52498L5.85275 6.90896C4.85819 8.43565 4.3504 9.93764 4.3504 11.3859C4.3504 12.6957 4.87011 13.952 5.79521 14.8782C6.7203 15.8044 7.975 16.3247 9.28329 16.3247C10.5916 16.3247 11.8463 15.8044 12.7714 14.8782C13.6965 13.952 14.2162 12.6957 14.2162 11.3859Z" fill="url(#paint0_linear_761_19698)" fill-opacity="0.2"/>
<defs>
<linearGradient id="paint0_linear_761_19698" x1="9.28329" y1="4.32053" x2="9.28329" y2="7.57433" gradientUnits="userSpaceOnUse">
<stop stop-color="white"/>
<stop offset="1" stop-color="white" stop-opacity="0"/>
</linearGradient>
</defs>
</svg>
