<svg width="73" height="83" viewBox="0 0 73 83" fill="none" xmlns="http://www.w3.org/2000/svg">
<g clip-path="url(#clip0_651_9977)">
<g filter="url(#filter0_dd_651_9977)">
<path d="M33.2201 73.8005C32.0003 73.0962 31.3429 71.6994 31.5541 70.2469C32.2022 65.583 30.098 61.0982 26.1596 58.8244C22.2213 56.5506 17.2852 56.9707 13.5702 59.8639C12.4179 60.773 10.8796 60.9021 9.65972 60.1979C7.98679 59.232 7.44562 57.0303 8.45249 55.2863L34.5891 10.0164C35.596 8.27243 37.7733 7.64023 39.4462 8.6061L39.7599 8.7872C40.9275 9.46129 41.5676 10.727 41.4611 12.1188C41.0749 16.5706 43.1796 20.6924 46.9263 22.8555C50.6729 25.0186 55.2948 24.7805 58.9745 22.2302C60.1092 21.432 61.5428 21.3636 62.7104 22.0377L63.0241 22.2188C64.697 23.1846 65.2382 25.3863 64.2313 27.1303L38.0842 72.4184C37.0704 74.1341 34.893 74.7663 33.2201 73.8005Z" fill="url(#paint0_linear_651_9977)"/>
</g>
<path d="M62.4854 23.1182C63.6704 23.8024 64.0694 25.3649 63.3457 26.6184L37.1986 71.9065C36.4854 73.1418 34.9396 73.6057 33.7372 72.9115C32.8659 72.4085 32.3963 71.4107 32.5582 70.3658C33.2835 65.2863 30.9741 60.3923 26.6872 57.9173C22.4003 55.4423 17.0073 55.8892 12.9815 59.0389C12.14 59.6915 11.0586 59.7938 10.1873 59.2908C9.0023 58.6066 8.60327 57.0441 9.32696 55.7906L35.4636 10.5206C36.1873 9.26717 37.7226 8.82139 38.925 9.51561L39.2387 9.69671C40.0577 10.1696 40.5238 11.0927 40.4493 12.067C40.0417 16.9181 42.3273 21.4107 46.405 23.765C50.4828 26.1193 55.5163 25.8524 59.5137 23.0738C60.3306 22.5039 61.3352 22.4542 62.1717 22.9371L62.4854 23.1182ZM63.5342 21.3016L63.2205 21.1205C61.7393 20.2653 59.8661 20.3707 58.4068 21.369C55.2053 23.614 50.9565 23.9707 47.4538 21.9484C43.9511 19.9261 42.1356 16.0682 42.4617 12.1631C42.6141 10.4102 41.7687 8.73529 40.2875 7.8801L39.9738 7.699C37.8129 6.45142 35.0215 7.26192 33.721 9.51452L7.57384 54.8027C6.28379 57.0371 6.9776 59.8598 9.13847 61.1074C10.7068 62.0129 12.6952 61.8287 14.1757 60.673C17.4368 58.1233 21.9614 57.611 25.6384 59.7339C29.3153 61.8568 31.1339 66.0314 30.5564 70.1305C30.2958 71.9904 31.1305 73.8045 32.6989 74.71C34.8423 75.9475 37.6512 75.1471 38.9517 72.8945L65.0883 27.6245C66.3889 25.3719 65.6951 22.5492 63.5342 21.3016Z" fill="black"/>
<path fill-rule="evenodd" clip-rule="evenodd" d="M15.6553 41.6134C15.9449 41.1117 16.5698 40.9303 17.051 41.2081L19.665 42.7173C20.1462 42.9951 20.3015 43.627 20.0119 44.1287C19.7222 44.6303 19.0973 44.8117 18.6161 44.5339L16.0022 43.0247C15.521 42.7469 15.3657 42.115 15.6553 41.6134Z" fill="black"/>
<path fill-rule="evenodd" clip-rule="evenodd" d="M23.0459 45.879C23.3355 45.3774 23.9604 45.1959 24.4416 45.4738L26.5306 46.6798C27.0118 46.9577 27.1671 47.5895 26.8775 48.0912C26.5879 48.5928 25.963 48.7743 25.4818 48.4964L23.3928 47.2904C22.9116 47.0125 22.7563 46.3807 23.0459 45.879ZM29.3128 49.4972C29.6025 48.9956 30.2274 48.8141 30.7086 49.092L34.8865 51.5041C35.3677 51.782 35.5231 52.4138 35.2334 52.9155C34.9438 53.4171 34.3189 53.5986 33.8377 53.3207L29.6598 50.9086C29.1785 50.6308 29.0232 49.9989 29.3128 49.4972ZM37.6688 54.3215C37.9584 53.8199 38.5833 53.6384 39.0645 53.9163L41.1535 55.1223C41.6347 55.4002 41.79 56.0321 41.5004 56.5337C41.2108 57.0354 40.5859 57.2168 40.1047 56.939L38.0157 55.7329C37.5345 55.4551 37.3791 54.8232 37.6688 54.3215Z" fill="black"/>
<path fill-rule="evenodd" clip-rule="evenodd" d="M42.1397 56.9064C42.4293 56.4047 43.0542 56.2233 43.5354 56.5011L46.1493 58.0103C46.6305 58.2881 46.7859 58.92 46.4962 59.4216C46.2066 59.9233 45.5817 60.1047 45.1005 59.8269L42.4866 58.3177C42.0053 58.0399 41.85 57.408 42.1397 56.9064Z" fill="black"/>
<path d="M35.2123 28.8576C35.2123 28.8576 38.1864 29.7027 39.6938 29.2651C39.7132 30.4389 39.7127 30.8019 40.6111 31.9019C39.1453 32.509 35.1719 35.5679 32.2693 41.2796C32.6478 37.2836 33.4816 31.976 35.2123 28.8576Z" fill="white"/>
<path d="M39.3129 33.1851C39.3129 33.1851 40.6305 33.8005 41.7817 33.7384C41.2579 34.1627 40.9645 34.4293 40.9645 34.4293C40.9645 34.4293 38.7289 39.5088 34.0672 43.4782C36.2166 40.2382 37.0163 36.9214 37.8239 35.5226C38.6315 34.1238 39.3129 33.1851 39.3129 33.1851Z" fill="white"/>
<path d="M41.9073 32.7958C41.9073 32.7958 44.3131 33.4581 45.6687 31.7944C46.022 33.597 46.9437 35.5824 47.4556 36.1444C46.5127 37.0533 39.1119 44.3583 38.0237 44.3114C40.3308 40.5569 41.0319 40.5499 41.9073 32.7958Z" fill="white"/>
<path d="M33.7306 45.5126C28.8861 42.7156 27.3112 36.3081 30.2269 31.2579C33.1426 26.2077 39.4792 24.3679 44.3237 27.1648C49.1683 29.9618 50.7432 36.3694 47.8275 41.4196C44.9118 46.4698 38.5752 48.3096 33.7306 45.5126ZM43.6944 28.2548C39.4076 25.7798 33.8526 27.3927 31.2725 31.8615C28.6924 36.3304 30.0905 41.9577 34.3599 44.4226C38.6294 46.8876 44.2123 45.2666 46.7819 40.8159C49.3515 36.3652 47.9813 30.7298 43.6944 28.2548Z" fill="white"/>
<path fill-rule="evenodd" clip-rule="evenodd" d="M37.5629 16.5493C37.9514 16.7652 38.0835 17.2684 37.8578 17.6731L35.4062 22.0702C35.1806 22.4749 34.6826 22.6279 34.2941 22.412C33.9056 22.196 33.7735 21.6928 33.9992 21.2881L36.4508 16.891C36.6764 16.4863 37.1743 16.3333 37.5629 16.5493Z" fill="white"/>
<path fill-rule="evenodd" clip-rule="evenodd" d="M45.9145 47.4575C46.303 47.6734 46.435 48.1766 46.2094 48.5814L43.7578 52.9784C43.5321 53.3831 43.0342 53.5361 42.6457 53.3202C42.2571 53.1042 42.1251 52.601 42.3507 52.1963L44.8023 47.7992C45.028 47.3945 45.5259 47.2415 45.9145 47.4575Z" fill="white"/>
<path fill-rule="evenodd" clip-rule="evenodd" d="M38.7477 21.0434C38.522 21.4481 38.0241 21.6011 37.6355 21.3852L33.4144 19.0388C33.0259 18.8229 32.8939 18.3197 33.1195 17.9149C33.3452 17.5102 33.8431 17.3572 34.2316 17.5732L38.4527 19.9195C38.8413 20.1355 38.9733 20.6386 38.7477 21.0434Z" fill="white"/>
<path fill-rule="evenodd" clip-rule="evenodd" d="M47.0914 51.9535C46.8657 52.3583 46.3678 52.5113 45.9793 52.2953L41.7582 49.949C41.3697 49.733 41.2376 49.2298 41.4633 48.8251C41.6889 48.4204 42.1868 48.2673 42.5754 48.4833L46.7965 50.8296C47.185 51.0456 47.3171 51.5488 47.0914 51.9535Z" fill="white"/>
</g>
<defs>
<filter id="filter0_dd_651_9977" x="4.94531" y="8.1543" width="62.7891" height="79.0996" filterUnits="userSpaceOnUse" color-interpolation-filters="sRGB">
<feFlood flood-opacity="0" result="BackgroundImageFix"/>
<feColorMatrix in="SourceAlpha" type="matrix" values="0 0 0 0 0 0 0 0 0 0 0 0 0 0 0 0 0 0 127 0" result="hardAlpha"/>
<feOffset dy="10"/>
<feGaussianBlur stdDeviation="1.5"/>
<feComposite in2="hardAlpha" operator="out"/>
<feColorMatrix type="matrix" values="0 0 0 0 0 0 0 0 0 0 0 0 0 0 0 0 0 0 0.25 0"/>
<feBlend mode="normal" in2="BackgroundImageFix" result="effect1_dropShadow_651_9977"/>
<feColorMatrix in="SourceAlpha" type="matrix" values="0 0 0 0 0 0 0 0 0 0 0 0 0 0 0 0 0 0 127 0" result="hardAlpha"/>
<feOffset dy="3"/>
<feComposite in2="hardAlpha" operator="out"/>
<feColorMatrix type="matrix" values="0 0 0 0 0.345521 0 0 0 0 0.432904 0 0 0 0 0.891667 0 0 0 1 0"/>
<feBlend mode="normal" in2="effect1_dropShadow_651_9977" result="effect2_dropShadow_651_9977"/>
<feBlend mode="normal" in="SourceGraphic" in2="effect2_dropShadow_651_9977" result="shape"/>
</filter>
<linearGradient id="paint0_linear_651_9977" x1="51.2475" y1="22.4896" x2="24.5224" y2="68.7789" gradientUnits="userSpaceOnUse">
<stop stop-color="#00C6FF"/>
<stop offset="1" stop-color="#0072FF"/>
</linearGradient>
<clipPath id="clip0_651_9977">
<rect width="43.4639" height="70.0613" fill="white" transform="translate(35.0312) rotate(30)"/>
</clipPath>
</defs>
</svg>
