<svg width="36" height="53" viewBox="0 0 36 53" fill="none" xmlns="http://www.w3.org/2000/svg">
<path d="M3.60927 32.0982L4.62199 31.041L3.60927 32.0982L20.6914 48.4618C21.6739 49.403 22.9688 50.62 24.6753 50.807C26.4972 51.0066 28.2339 50.0222 30.0885 48.1676C32.1109 46.1453 33.0324 44.2486 32.5631 42.3182C32.3466 41.4277 31.865 40.7007 31.3712 40.1111C30.9341 39.5892 30.4133 39.0919 29.9529 38.6522C29.9017 38.6033 29.8512 38.5551 29.8017 38.5076L17.8986 27.1053L31.4061 14.0834C32.433 13.0935 33.6923 11.7658 34.0137 10.0397C34.3657 8.14933 33.539 6.29851 31.6664 4.4259L30.6057 5.48656L31.6664 4.4259C29.5752 2.33474 27.7503 1.19171 25.8713 1.57066C24.9725 1.75193 24.2795 2.24984 23.7497 2.71283C23.4353 2.9876 23.0728 3.35226 22.7436 3.68347C22.571 3.85703 22.4076 4.02141 22.2651 4.15886L3.59385 22.1588C2.24979 23.4546 1.49712 25.2567 1.50001 27.1319C1.5029 29.0071 2.26113 30.8068 3.60927 32.0982Z" fill="white" stroke="black" stroke-width="3" stroke-linejoin="round"/>
</svg>
