<svg width="119" height="77" viewBox="0 0 119 77" fill="none" xmlns="http://www.w3.org/2000/svg">
<g filter="url(#filter0_d_729_10731)">
<mask id="path-1-outside-1_729_10731" maskUnits="userSpaceOnUse" x="2.21887" y="-1.86673" width="114.998" height="73.4669" fill="black">
<rect fill="white" x="2.21887" y="-1.86673" width="114.998" height="73.4669"/>
<path d="M92.6804 5.80412C91.0388 6.08894 89.9424 7.66436 90.2305 9.32462C90.5179 10.9811 89.4185 12.5609 87.7806 12.8451L25.3846 23.6708C23.7467 23.955 22.1793 22.8378 21.8919 21.1813C21.6039 19.521 20.041 18.407 18.3993 18.6918C12.6648 19.6867 8.81854 25.2139 9.82477 31.0136L13.9957 55.0535C15.0019 60.8531 20.4853 64.7616 26.2198 63.7666L37.3619 61.8335C40.632 61.2661 43.446 59.1741 44.9515 56.1831C45.5932 54.909 46.8077 54.0038 48.2042 53.7615C78.8091 48.4516 77.0645 48.5563 78.5078 48.9933C79.1766 49.1984 79.7984 49.5626 80.3093 50.0485C82.7182 52.3449 86.1014 53.3772 89.3587 52.8121L100.501 50.8789C106.235 49.884 110.082 44.3568 109.075 38.5572L104.904 14.5173C103.898 8.71768 98.4149 4.80919 92.6804 5.80412ZM94.0207 33.4306L86.7375 34.6942C85.3744 34.9307 84.0218 34.3122 83.38 33.1602L81.8039 30.3382C80.7829 28.5111 81.9588 26.237 84.1186 25.8623L91.4018 24.5986C92.7649 24.3621 94.1175 24.9806 94.7593 26.1326L96.3354 28.9546C97.3564 30.7818 96.1804 33.0559 94.0207 33.4306ZM72.6384 40.2358L48.8685 44.3599C47.2269 44.6447 45.664 43.5307 45.3759 41.8704C45.0879 40.2101 46.1842 38.6347 47.8258 38.3499L71.5957 34.2258C73.2373 33.941 74.8003 35.0551 75.0883 36.7153C75.3764 38.3756 74.2801 39.951 72.6384 40.2358ZM26.4435 45.1552C24.2838 45.5299 22.4105 43.7848 22.7563 41.7205L23.2898 38.5325C23.506 37.2317 24.5712 36.1937 25.9342 35.9572L33.2175 34.6935C35.3772 34.3188 37.2505 36.0639 36.9047 38.1282L36.3713 41.3162C36.1551 42.617 35.0899 43.655 33.7268 43.8915L26.4435 45.1552Z"/>
</mask>
<path d="M92.6804 5.80412C91.0388 6.08894 89.9424 7.66436 90.2305 9.32462C90.5179 10.9811 89.4185 12.5609 87.7806 12.8451L25.3846 23.6708C23.7467 23.955 22.1793 22.8378 21.8919 21.1813C21.6039 19.521 20.041 18.407 18.3993 18.6918C12.6648 19.6867 8.81854 25.2139 9.82477 31.0136L13.9957 55.0535C15.0019 60.8531 20.4853 64.7616 26.2198 63.7666L37.3619 61.8335C40.632 61.2661 43.446 59.1741 44.9515 56.1831C45.5932 54.909 46.8077 54.0038 48.2042 53.7615C78.8091 48.4516 77.0645 48.5563 78.5078 48.9933C79.1766 49.1984 79.7984 49.5626 80.3093 50.0485C82.7182 52.3449 86.1014 53.3772 89.3587 52.8121L100.501 50.8789C106.235 49.884 110.082 44.3568 109.075 38.5572L104.904 14.5173C103.898 8.71768 98.4149 4.80919 92.6804 5.80412ZM94.0207 33.4306L86.7375 34.6942C85.3744 34.9307 84.0218 34.3122 83.38 33.1602L81.8039 30.3382C80.7829 28.5111 81.9588 26.237 84.1186 25.8623L91.4018 24.5986C92.7649 24.3621 94.1175 24.9806 94.7593 26.1326L96.3354 28.9546C97.3564 30.7818 96.1804 33.0559 94.0207 33.4306ZM72.6384 40.2358L48.8685 44.3599C47.2269 44.6447 45.664 43.5307 45.3759 41.8704C45.0879 40.2101 46.1842 38.6347 47.8258 38.3499L71.5957 34.2258C73.2373 33.941 74.8003 35.0551 75.0883 36.7153C75.3764 38.3756 74.2801 39.951 72.6384 40.2358ZM26.4435 45.1552C24.2838 45.5299 22.4105 43.7848 22.7563 41.7205L23.2898 38.5325C23.506 37.2317 24.5712 36.1937 25.9342 35.9572L33.2175 34.6935C35.3772 34.3188 37.2505 36.0639 36.9047 38.1282L36.3713 41.3162C36.1551 42.617 35.0899 43.655 33.7268 43.8915L26.4435 45.1552Z" fill="url(#paint0_linear_729_10731)"/>
<path d="M92.6804 5.80412C91.0388 6.08894 89.9424 7.66436 90.2305 9.32462C90.5179 10.9811 89.4185 12.5609 87.7806 12.8451L25.3846 23.6708C23.7467 23.955 22.1793 22.8378 21.8919 21.1813C21.6039 19.521 20.041 18.407 18.3993 18.6918C12.6648 19.6867 8.81854 25.2139 9.82477 31.0136L13.9957 55.0535C15.0019 60.8531 20.4853 64.7616 26.2198 63.7666L37.3619 61.8335C40.632 61.2661 43.446 59.1741 44.9515 56.1831C45.5932 54.909 46.8077 54.0038 48.2042 53.7615C78.8091 48.4516 77.0645 48.5563 78.5078 48.9933C79.1766 49.1984 79.7984 49.5626 80.3093 50.0485C82.7182 52.3449 86.1014 53.3772 89.3587 52.8121L100.501 50.8789C106.235 49.884 110.082 44.3568 109.075 38.5572L104.904 14.5173C103.898 8.71768 98.4149 4.80919 92.6804 5.80412ZM94.0207 33.4306L86.7375 34.6942C85.3744 34.9307 84.0218 34.3122 83.38 33.1602L81.8039 30.3382C80.7829 28.5111 81.9588 26.237 84.1186 25.8623L91.4018 24.5986C92.7649 24.3621 94.1175 24.9806 94.7593 26.1326L96.3354 28.9546C97.3564 30.7818 96.1804 33.0559 94.0207 33.4306ZM72.6384 40.2358L48.8685 44.3599C47.2269 44.6447 45.664 43.5307 45.3759 41.8704C45.0879 40.2101 46.1842 38.6347 47.8258 38.3499L71.5957 34.2258C73.2373 33.941 74.8003 35.0551 75.0883 36.7153C75.3764 38.3756 74.2801 39.951 72.6384 40.2358ZM26.4435 45.1552C24.2838 45.5299 22.4105 43.7848 22.7563 41.7205L23.2898 38.5325C23.506 37.2317 24.5712 36.1937 25.9342 35.9572L33.2175 34.6935C35.3772 34.3188 37.2505 36.0639 36.9047 38.1282L36.3713 41.3162C36.1551 42.617 35.0899 43.655 33.7268 43.8915L26.4435 45.1552Z" stroke="black" stroke-width="10" mask="url(#path-1-outside-1_729_10731)"/>
</g>
<defs>
<filter id="filter0_d_729_10731" x="0.664062" y="0.648438" width="117.57" height="76.2754" filterUnits="userSpaceOnUse" color-interpolation-filters="sRGB">
<feFlood flood-opacity="0" result="BackgroundImageFix"/>
<feColorMatrix in="SourceAlpha" type="matrix" values="0 0 0 0 0 0 0 0 0 0 0 0 0 0 0 0 0 0 127 0" result="hardAlpha"/>
<feOffset dy="4"/>
<feGaussianBlur stdDeviation="2"/>
<feComposite in2="hardAlpha" operator="out"/>
<feColorMatrix type="matrix" values="0 0 0 0 0 0 0 0 0 0 0 0 0 0 0 0 0 0 0.25 0"/>
<feBlend mode="normal" in2="BackgroundImageFix" result="effect1_dropShadow_729_10731"/>
<feBlend mode="normal" in="SourceGraphic" in2="effect1_dropShadow_729_10731" result="shape"/>
</filter>
<linearGradient id="paint0_linear_729_10731" x1="48.6922" y1="-37.2167" x2="139.741" y2="-0.846414" gradientUnits="userSpaceOnUse">
<stop stop-color="#FF005C"/>
<stop offset="1" stop-color="#BD00FF"/>
</linearGradient>
</defs>
</svg>
