<svg width="83" height="81" viewBox="0 0 83 81" fill="none" xmlns="http://www.w3.org/2000/svg">
<g filter="url(#filter0_d_684_9519)">
<path d="M76.2065 22.8854H71.0459C69.2449 16.3106 65.3337 10.5095 59.9139 6.37462C54.4941 2.23971 47.8659 0 41.0489 0C34.2319 0 27.6036 2.23971 22.1838 6.37462C16.764 10.5095 12.8528 16.3106 11.0519 22.8854H5.89126C5.39174 22.8854 4.91267 23.0838 4.55946 23.437C4.20625 23.7903 4.00781 24.2693 4.00781 24.7688V36.961C4.00781 37.4605 4.20625 37.9396 4.55946 38.2928C4.91267 38.646 5.39174 38.8444 5.89126 38.8444H10.9138C11.997 43.0867 13.9702 47.0501 16.7022 50.4716C15.0598 52.2758 14.1236 54.612 14.0654 57.0511C14.0654 65.5015 25.9185 72.1186 41.0614 72.1186C56.2043 72.1186 68.0575 65.5015 68.0575 57.0511C67.9993 54.612 67.063 52.2758 65.4206 50.4716C68.1437 47.0479 70.1082 43.0847 71.184 38.8444H76.2065C76.706 38.8444 77.1851 38.646 77.5383 38.2928C77.8915 37.9396 78.0899 37.4605 78.0899 36.961V24.7688C78.0899 24.2693 77.8915 23.7903 77.5383 23.437C77.1851 23.0838 76.706 22.8854 76.2065 22.8854ZM10.1855 35.0776H7.7747V26.6523H10.286C10.0641 28.1363 9.95083 29.6344 9.94694 31.1349C9.94392 32.4528 10.0236 33.7696 10.1855 35.0776ZM41.0489 3.77472C45.422 3.77598 49.731 4.82694 53.6137 6.83928C57.4963 8.85161 60.8392 11.7665 63.3614 15.3391C56.8525 10.7129 49.0331 8.2927 41.0489 8.43311C33.0646 8.2927 25.2453 10.7129 18.7363 15.3391C21.2585 11.7665 24.6014 8.85161 28.4841 6.83928C32.3668 4.82694 36.6757 3.77598 41.0489 3.77472ZM63.3614 46.9307C60.838 50.5012 57.4946 53.414 53.612 55.4243C49.7294 57.4347 45.4211 58.4839 41.0489 58.4839C36.6767 58.4839 32.3684 57.4347 28.4858 55.4243C24.6032 53.414 21.2598 50.5012 18.7363 46.9307C25.2492 51.5476 33.0668 53.9629 41.0489 53.8241C49.031 53.9629 56.8486 51.5476 63.3614 46.9307ZM16.2 31.1349C16.2 22.0818 27.35 14.7113 41.0489 14.7113C41.5484 14.7113 42.0275 14.9097 42.3807 15.2629C42.7339 15.6161 42.9323 16.0952 42.9323 16.5947C42.9323 17.0942 42.7339 17.5733 42.3807 17.9265C42.0275 18.2797 41.5484 18.4781 41.0489 18.4781C29.8236 18.4781 19.9669 24.3922 19.9669 31.1349C19.9669 31.6344 19.7684 32.1135 19.4152 32.4667C19.062 32.8199 18.5829 33.0183 18.0834 33.0183C17.5839 33.0183 17.1048 32.8199 16.7516 32.4667C16.3984 32.1135 16.2 31.6344 16.2 31.1349ZM41.0489 68.3517C28.4926 68.3517 17.8197 63.1785 17.8197 57.0511C17.8664 55.6738 18.365 54.3501 19.2386 53.2842C25.048 59.0214 32.884 62.2385 41.0489 62.2385C49.2137 62.2385 57.0497 59.0214 62.8592 53.2842C63.7327 54.3501 64.2313 55.6738 64.278 57.0511C64.278 63.1785 53.6052 68.3517 41.0489 68.3517ZM74.3231 35.0776H71.9123C72.0826 33.7701 72.1706 32.4533 72.1759 31.1349C72.172 29.6344 72.0587 28.1363 71.8369 26.6523H74.3482L74.3231 35.0776Z" fill="white"/>
<path d="M70.5636 23.0175L70.6644 23.3854H71.0459H76.2065C76.5734 23.3854 76.9253 23.5312 77.1847 23.7906C77.4442 24.05 77.59 24.4019 77.59 24.7688V36.961C77.59 37.3279 77.4442 37.6798 77.1847 37.9392C76.9253 38.1987 76.5734 38.3444 76.2065 38.3444H71.184H70.795L70.6993 38.7215C69.641 42.8931 67.7083 46.7921 65.0293 50.1603L64.7644 50.4934L65.0509 50.8082C66.6109 52.5219 67.5008 54.7405 67.5575 57.0571C67.5547 61.0221 64.7705 64.6512 59.9943 67.3172C55.2278 69.9777 48.5667 71.6186 41.0614 71.6186C33.5562 71.6186 26.8951 69.9777 22.1285 67.3172C17.3523 64.6512 14.5682 61.022 14.5654 57.057C14.6221 54.7404 15.512 52.5219 17.072 50.8082L17.359 50.4928L17.0929 50.1596C14.4051 46.7935 12.4639 42.8943 11.3982 38.7207L11.3021 38.3444H10.9138H5.89126C5.52434 38.3444 5.17246 38.1987 4.91301 37.9392C4.65357 37.6798 4.50781 37.3279 4.50781 36.961V24.7688C4.50781 24.4019 4.65357 24.05 4.91301 23.7906C5.17246 23.5312 5.52435 23.3854 5.89126 23.3854H11.0519H11.4334L11.5341 23.0175C13.3061 16.5484 17.1544 10.8406 22.4871 6.77214C27.8198 2.70371 34.3414 0.5 41.0489 0.5C47.7563 0.5 54.278 2.70371 59.6107 6.77214C64.9433 10.8406 68.7917 16.5484 70.5636 23.0175ZM10.1855 35.5776H10.7512L10.6817 35.0161C10.5224 33.729 10.444 32.433 10.4469 31.136C10.4508 29.6599 10.5622 28.1861 10.7805 26.7262L10.8663 26.1523H10.286H7.7747H7.2747V26.6523V35.0776V35.5776H7.7747H10.1855ZM63.0718 15.7466L63.7699 15.0507C61.2015 11.4128 57.7974 8.44452 53.8437 6.39536C49.89 4.34619 45.5022 3.276 41.049 3.27472H41.0487C36.5956 3.276 32.2077 4.34619 28.254 6.39536C24.3003 8.44452 20.8962 11.4128 18.3279 15.0507L19.026 15.7466C25.4479 11.1823 33.1626 8.7945 41.0401 8.93303L41.0489 8.93318L41.0577 8.93303C48.9351 8.7945 56.6499 11.1823 63.0718 15.7466ZM63.7697 47.2193L63.0723 46.5228C56.6464 51.0781 48.9331 53.4611 41.0576 53.3242L41.0489 53.324L41.0402 53.3242C33.1647 53.4611 25.4514 51.0781 19.0255 46.5228L18.328 47.2193C20.8976 50.8551 24.3022 53.8212 28.2559 55.8683C32.2095 57.9155 36.5967 58.9839 41.0489 58.9839C45.5011 58.9839 49.8883 57.9155 53.8419 55.8683C57.7955 53.8212 61.2001 50.8551 63.7697 47.2193ZM17.32 57.0341L17.3197 57.0426V57.0511C17.3197 60.4197 20.2308 63.3709 24.5072 65.4489C28.8244 67.5468 34.7087 68.8517 41.0489 68.8517C47.389 68.8517 53.2734 67.5468 57.5906 65.4489C61.8669 63.3709 64.778 60.4197 64.778 57.0511V57.0426L64.7777 57.0341C64.7273 55.5471 64.189 54.118 63.2459 52.9672L62.8981 52.543L62.5078 52.9284C56.792 58.5732 49.0822 61.7385 41.0489 61.7385C33.0156 61.7385 25.3058 58.5732 19.5899 52.9284L19.1996 52.543L18.8519 52.9672C17.9087 54.118 17.3704 55.5471 17.32 57.0341ZM74.3231 35.5776H74.8216L74.8231 35.0791L74.8482 26.6538L74.8497 26.1523H74.3482H71.8369H71.2566L71.3424 26.7262C71.5606 28.1858 71.6721 29.6595 71.6759 31.1353C71.6706 32.432 71.5839 33.7271 71.4164 35.013L71.3429 35.5776H71.9123H74.3231ZM41.0489 14.2113C34.115 14.2113 27.8039 16.0757 23.2116 19.111C18.6236 22.1436 15.7 26.3865 15.7 31.1349C15.7 31.767 15.9511 32.3733 16.3981 32.8202C16.8451 33.2672 17.4513 33.5183 18.0834 33.5183C18.7155 33.5183 19.3218 33.2672 19.7688 32.8202C20.2157 32.3733 20.4669 31.767 20.4669 31.1349C20.4669 28.019 22.7546 24.9882 26.5557 22.7067C30.3381 20.4364 35.518 18.9781 41.0489 18.9781C41.681 18.9781 42.2872 18.727 42.7342 18.28C43.1812 17.8331 43.4323 17.2268 43.4323 16.5947C43.4323 15.9626 43.1812 15.3563 42.7342 14.9093C42.2872 14.4624 41.681 14.2113 41.0489 14.2113Z" stroke="black"/>
</g>
<defs>
<filter id="filter0_d_684_9519" x="0.0078125" y="0" width="82.0859" height="80.1191" filterUnits="userSpaceOnUse" color-interpolation-filters="sRGB">
<feFlood flood-opacity="0" result="BackgroundImageFix"/>
<feColorMatrix in="SourceAlpha" type="matrix" values="0 0 0 0 0 0 0 0 0 0 0 0 0 0 0 0 0 0 127 0" result="hardAlpha"/>
<feOffset dy="4"/>
<feGaussianBlur stdDeviation="2"/>
<feComposite in2="hardAlpha" operator="out"/>
<feColorMatrix type="matrix" values="0 0 0 0 0 0 0 0 0 0 0 0 0 0 0 0 0 0 0.25 0"/>
<feBlend mode="normal" in2="BackgroundImageFix" result="effect1_dropShadow_684_9519"/>
<feBlend mode="normal" in="SourceGraphic" in2="effect1_dropShadow_684_9519" result="shape"/>
</filter>
</defs>
</svg>
